<svg width="24" height="24" viewBox="0 0 24 24" fill="currentColor" stroke="currentColor" xmlns="http://www.w3.org/2000/svg">
<path d="M2 8.67793C2 7.237 2.00102 6.20709 2.10146 5.42101C2.20013 4.64877 2.38694 4.18772 2.705 3.84388C2.74803 3.79737 2.79271 3.75243 2.83895 3.70915C3.18078 3.38922 3.63913 3.2013 4.40685 3.10205C5.18834 3.00103 6.21222 3 7.64473 3H9.04971C9.25823 3 9.34051 3.00023 9.41606 3.00482C10.1828 3.05143 10.891 3.43269 11.3549 4.04854C11.4006 4.10923 11.4464 4.17797 11.5621 4.35249L11.5721 4.36759C11.6746 4.52227 11.7388 4.6192 11.8061 4.70852C12.4555 5.57071 13.4471 6.10447 14.5204 6.16973C14.6317 6.17648 14.7475 6.17648 14.9323 6.17647H14.9503H16.3553C17.7878 6.17647 18.8117 6.1775 19.5932 6.27852C20.3608 6.37777 20.8193 6.56569 21.1611 6.88562C21.2073 6.9289 21.252 6.97384 21.2949 7.02035C21.6131 7.3642 21.7999 7.82524 21.8985 8.59748C21.9989 9.38356 22 10.4135 22 11.8544V15.1765C22 16.6888 21.9988 17.7698 21.8891 18.5914C21.7813 19.3977 21.5776 19.8743 21.2293 20.2247C20.8808 20.5751 20.4071 20.78 19.6055 20.8884C18.7887 20.9988 17.714 21 16.2105 21H7.78947C6.28595 21 5.21125 20.9988 4.39454 20.8884C3.59296 20.78 3.11915 20.5751 2.77077 20.2247C2.4224 19.8743 2.21869 19.3977 2.11092 18.5914C2.00112 17.7698 2 16.6888 2 15.1765V8.67793Z" fillOpacity="0.2"/>
<path d="M11.3549 4.04854C10.891 3.43269 10.1828 3.05143 9.41606 3.00482C9.34051 3.00023 9.25823 3 9.04971 3H7.64473C6.21222 3 5.18834 3.00103 4.40685 3.10205C3.63913 3.2013 3.18078 3.38922 2.83895 3.70915C2.79271 3.75243 2.74803 3.79737 2.705 3.84388C2.38694 4.18772 2.20013 4.64877 2.10146 5.42101C2.00102 6.20709 2 7.237 2 8.67793V15.1765C2 16.6888 2.00112 17.7698 2.11092 18.5914C2.21869 19.3977 2.4224 19.8743 2.77077 20.2247C3.11915 20.5751 3.59296 20.78 4.39454 20.8884C5.21125 20.9988 6.28595 21 7.78947 21H16.2105C17.714 21 18.7887 20.9988 19.6055 20.8884C20.4071 20.78 20.8808 20.5751 21.2293 20.2247C21.5776 19.8743 21.7813 19.3977 21.8891 18.5914C21.9988 17.7698 22 16.6888 22 15.1765V11.8544C22 10.4135 21.9989 9.38356 21.8985 8.59748C21.7999 7.82524 21.6131 7.3642 21.2949 7.02035C21.252 6.97384 21.2073 6.9289 21.1611 6.88562C20.8193 6.56569 20.3608 6.37777 19.5932 6.27852C18.8117 6.1775 17.7878 6.17647 16.3553 6.17647H14.9503H14.9323C14.7475 6.17648 14.6317 6.17648 14.5204 6.16973C13.4471 6.10447 12.4555 5.57071 11.8061 4.70852C11.7388 4.6192 11.6746 4.52227 11.5721 4.36759L11.5621 4.35249C11.4464 4.17797 11.4006 4.10923 11.3549 4.04854ZM11.3549 4.04854L11.7744 3.72884" strokeWidth="1.2" />
</svg>
