<svg width="24" height="24" viewBox="0 0 24 24" fill="none" xmlns="http://www.w3.org/2000/svg">
<path d="M9.381 9.3C9.59259 8.6985 10.0102 8.1913 10.56 7.86822C11.1097 7.54514 11.756 7.42704 12.3845 7.53484C13.0129 7.64264 13.5829 7.96937 13.9936 8.45718C14.4042 8.94498 14.628 9.5 14.628 10.2C14.628 11.3513 13.3116 12.26 12.5172 12.7035C12.1673 12.8988 11.928 13.26 11.928 13.6607V14M12 17H12.009M21 12C21 16.9706 16.9706 21 12 21C7.02944 21 3 16.9706 3 12C3 7.02944 7.02944 3 12 3C16.9706 3 21 7.02944 21 12Z" stroke="currentColor" stroke-width="2" stroke-linecap="round" stroke-linejoin="round"/>
</svg>
