<svg width="24" height="24" viewBox="0 0 24 24" fill="none" xmlns="http://www.w3.org/2000/svg">
<path d="M8.14793 5.66361C8.18882 5.4969 8.21053 5.32246 8.21053 5.14286C8.21053 3.95939 7.26797 3 6.10526 3C4.94256 3 4 3.95939 4 5.14286C4 6.32632 4.94256 7.28571 6.10526 7.28571C7.09152 7.28571 7.91938 6.59542 8.14793 5.66361ZM8.14793 5.66361L15.8519 7.62271M15.8519 7.62271C15.8111 7.78924 15.7895 7.96347 15.7895 8.14286C15.7895 8.32224 15.8111 8.49648 15.8519 8.66301M15.8519 7.62271C16.0803 6.69059 16.9083 6 17.8947 6C19.0574 6 20 6.95939 20 8.14286C20 9.32632 19.0574 10.2857 17.8947 10.2857C16.9083 10.2857 16.0803 9.59512 15.8519 8.66301M15.8519 8.66301L8.14793 11.4793M8.14793 11.4793C7.91938 10.5474 7.09152 9.85714 6.10526 9.85714C4.94256 9.85714 4 10.8165 4 12C4 13.1835 4.94256 14.1429 6.10526 14.1429C7.09152 14.1429 7.91938 13.4526 8.14793 12.5207M8.14793 11.4793C8.18882 11.646 8.21053 11.8204 8.21053 12C8.21053 12.1796 8.18882 12.354 8.14793 12.5207M8.14793 12.5207L15.8519 15.337M15.8519 15.337C15.8111 15.5035 15.7895 15.6778 15.7895 15.8571C15.7895 16.0365 15.8111 16.2108 15.8519 16.3773M15.8519 15.337C16.0803 14.4049 16.9083 13.7143 17.8947 13.7143C19.0574 13.7143 20 14.6737 20 15.8571C20 17.0406 19.0574 18 17.8947 18C16.9083 18 16.0803 17.3094 15.8519 16.3773M15.8519 16.3773L8.14793 18.3364M8.14793 18.3364C7.91938 17.4046 7.09152 16.7143 6.10526 16.7143C4.94256 16.7143 4 17.6737 4 18.8571C4 20.0406 4.94256 21 6.10526 21C7.26797 21 8.21053 20.0406 8.21053 18.8571C8.21053 18.6775 8.18882 18.5031 8.14793 18.3364Z" stroke="currentColor" stroke-width="2"/>
</svg>
