<svg width="24" height="24" viewBox="0 0 24 24" fill="none" xmlns="http://www.w3.org/2000/svg">
<path d="M8.44444 20H13.5556M11 16.5V20M5.77778 7H16.2222C17.2041 7 18 7.7835 18 8.75V14.75C18 15.7165 17.2041 16.5 16.2222 16.5H5.77778C4.79594 16.5 4 15.7165 4 14.75V8.75C4 7.7835 4.79594 7 5.77778 7Z" stroke="currentColor" stroke-width="2" stroke-linecap="round" stroke-linejoin="round"/>
<path d="M19.2222 13C20.2041 13 21 12.1792 21 11.1667V5.83333C21 4.82081 20.2041 4 19.2222 4H8.77778C7.79594 4 7 4.82081 7 5.83333" stroke="currentColor" stroke-width="2" stroke-linecap="round" stroke-linejoin="round"/>
</svg>
