<svg width="24" height="24" viewBox="0 0 24 24" fill="none" xmlns="http://www.w3.org/2000/svg">
<path d="M6.71024 18.8098C6.74662 18.4177 6.86347 18.0391 7.05238 17.7012C7.2413 17.3634 7.49758 17.0747 7.8028 16.856L9.60966 15.5636C10.0757 15.2293 10.1129 14.4933 9.7363 14.048C9.15691 13.3636 8.48234 12.3484 8.48234 11.3333C8.48234 9.55556 8.68926 6 12 6C15.3108 6 15.5177 9.55556 15.5177 11.3333C15.5177 12.3484 14.8432 13.3636 14.2638 14.048C13.8872 14.4924 13.9244 15.2302 14.3904 15.5636L16.1965 16.856C16.5018 17.0746 16.7583 17.3633 16.9473 17.7011C17.1364 18.0389 17.2534 18.4176 17.2898 18.8098L17.4959 21.0231C17.5074 21.1466 17.4946 21.2714 17.4584 21.3893C17.4222 21.5072 17.3635 21.6157 17.2859 21.7077C17.2083 21.7997 17.1136 21.8733 17.008 21.9236C16.9023 21.974 16.788 22 16.6724 22H7.32771C7.21203 22 7.09764 21.974 6.99191 21.9236C6.88618 21.8732 6.79146 21.7995 6.71386 21.7074C6.63627 21.6153 6.57751 21.5067 6.54139 21.3887C6.50527 21.2707 6.49258 21.1458 6.50415 21.0222L6.71024 18.8098Z" fill="currentColor"/>
<path d="M2.13379 18.5061C2.15694 18.261 2.2313 18.0244 2.35152 17.8133C2.47173 17.6021 2.63483 17.4217 2.82906 17.285L3.97887 16.4772C4.27541 16.2683 4.29912 15.8083 4.05946 15.53C3.69076 15.1022 3.26149 14.4678 3.26149 13.8333C3.26149 12.7222 3.39317 10.5 5.50003 10.5C7.60689 10.5 7.73856 12.7222 7.73856 13.8333C7.73856 14.4678 7.30929 15.1022 6.94059 15.53C6.70094 15.8078 6.72464 16.2689 7.02118 16.4772L8.17047 17.285C8.3648 17.4217 8.52799 17.602 8.6483 17.8132C8.76861 18.0243 8.84305 18.261 8.86626 18.5061L8.99741 19.8894C9.0047 19.9667 8.99656 20.0446 8.97354 20.1183C8.95052 20.192 8.91312 20.2598 8.86375 20.3173C8.81437 20.3748 8.75413 20.4208 8.68688 20.4523C8.61964 20.4837 8.54689 20.5 8.47333 20.5H2.52672C2.45311 20.5 2.38032 20.4837 2.31303 20.4522C2.24575 20.4207 2.18548 20.3747 2.1361 20.3171C2.08671 20.2595 2.04932 20.1917 2.02634 20.1179C2.00335 20.0442 1.99528 19.9661 2.00264 19.8889L2.13379 18.5061Z" fill="currentColor" opacity="0.4"/>
<path d="M15.1338 18.5061C15.1569 18.261 15.2313 18.0244 15.3515 17.8133C15.4717 17.6021 15.6348 17.4217 15.8291 17.285L16.9789 16.4772C17.2754 16.2683 17.2991 15.8083 17.0595 15.53C16.6908 15.1022 16.2615 14.4678 16.2615 13.8333C16.2615 12.7222 16.3932 10.5 18.5 10.5C20.6069 10.5 20.7386 12.7222 20.7386 13.8333C20.7386 14.4678 20.3093 15.1022 19.9406 15.53C19.7009 15.8078 19.7246 16.2689 20.0212 16.4772L21.1705 17.285C21.3648 17.4217 21.528 17.602 21.6483 17.8132C21.7686 18.0243 21.8431 18.261 21.8663 18.5061L21.9974 19.8894C22.0047 19.9667 21.9966 20.0446 21.9735 20.1183C21.9505 20.192 21.9131 20.2598 21.8637 20.3173C21.8144 20.3748 21.7541 20.4208 21.6869 20.4523C21.6196 20.4837 21.5469 20.5 21.4733 20.5H15.5267C15.4531 20.5 15.3803 20.4837 15.313 20.4522C15.2458 20.4207 15.1855 20.3747 15.1361 20.3171C15.0867 20.2595 15.0493 20.1917 15.0263 20.1179C15.0034 20.0442 14.9953 19.9661 15.0026 19.8889L15.1338 18.5061Z" fill="currentColor" opacity="0.4"/>
</svg>
