<svg xmlns="http://www.w3.org/2000/svg" fill="none" viewBox="0 0 32 32"><g clip-path="url(#clip0_rotate_left)"><rect width="17" height="15" x="10.686" y="8.79" fill="currentColor" opacity=".4" rx="3" transform="rotate(5 10.686 8.79004)"/><path stroke="currentColor" stroke-linecap="round" stroke-width="2" d="M6.00007 14C5.00007 9 9.00007 4 15.0001 6" opacity=".4"/><g filter="url(#filter0_rotate_left)"><path fill="currentColor" d="M6.26297 12H5.73703C4.09201 12 3.2695 12 2.98684 12.5281C2.70419 13.0563 3.16044 13.7407 4.07293 15.1094L4.3359 15.5038C5.08851 16.6328 5.46482 17.1972 6 17.1972C6.53518 17.1972 6.91149 16.6328 7.6641 15.5038L7.92707 15.1094C8.83956 13.7407 9.29581 13.0563 9.01316 12.5281C8.7305 12 7.90799 12 6.26297 12Z"/></g></g><defs><filter id="filter0_rotate_left" width="12.193" height="11.197" x="-.096" y="10" color-interpolation-filters="sRGB" filterUnits="userSpaceOnUse"><feFlood flood-opacity="0" result="BackgroundImageFix"/><feColorMatrix in="SourceAlpha" result="hardAlpha" type="matrix" values="0 0 0 0 0 0 0 0 0 0 0 0 0 0 0 0 0 0 127 0"/><feOffset dy="1"/><feGaussianBlur stdDeviation="1.5"/><feColorMatrix type="matrix" values="0 0 0 0 0 0 0 0 0 0 0 0 0 0 0 0 0 0 0.4 0"/><feBlend in2="BackgroundImageFix" mode="normal" result="effect1_dropShadow"/><feBlend in="SourceGraphic" in2="effect1_dropShadow" mode="normal" result="shape"/></filter><clipPath id="clip0_rotate_left"><rect width="32" height="32" fill="#fff"/></clipPath></defs></svg>