<svg fill="none" height="20" viewBox="0 0 20 20" width="20" xmlns="http://www.w3.org/2000/svg"><path clip-rule="evenodd" d="m9.99908 0c-5.52135 0-9.99908 4.47712-9.99908 10.0003 0 4.4182 2.86504 8.166 6.83876 9.4883.50032.0921.68265-.2167.68265-.4819 0-.2369-.0086-.8662-.01351-1.7005-2.78154.6041-3.36842-1.3407-3.36842-1.3407-.4549-1.1553-1.11054-1.4629-1.11054-1.4629-.90794-.62.06876-.6078.06876-.6078 1.00372.0706 1.53166 1.0308 1.53166 1.0308.89199 1.5279 2.34077 1.0866 2.91047.8306.09085-.6459.3493-1.0866.63476-1.3365-2.22045-.2523-4.55508-1.1105-4.55508-4.94243 0-1.0915.38982-1.98471 1.0295-2.68332-.10314-.25293-.4463-1.27015.09822-2.64649 0 0 .83919-.26889 2.74962 1.0252.79745-.22223 1.65322-.33273 2.50345-.33703.8496.0043 1.7048.1148 2.5035.33703 1.9092-1.29409 2.7471-1.0252 2.7471-1.0252.5458 1.37634.2026 2.39356.1001 2.64649.6409.69861 1.0276 1.59182 1.0276 2.68332 0 3.84173-2.3383 4.68703-4.5655 4.93443.3585.3088.6784.919.6784 1.8522 0 1.3364-.0123 2.415-.0123 2.7428 0 .2677.1805.5789.6876.4813 3.9706-1.3254 6.8332-5.0707 6.8332-9.4877 0-5.52318-4.4777-10.0003-10.00092-10.0003z" fill="#000" fill-opacity=".4" fill-rule="evenodd"/></svg>