<svg fill="none" height="16" viewBox="0 0 24 16" width="24" xmlns="http://www.w3.org/2000/svg"><path clip-rule="evenodd" d="m21.0794.46981c.9981.264201 1.776 1.04213 2.0402 2.02554.4844 1.7907.4991 5.5042.4991 5.5042s0 3.72815-.4844 5.50415c-.2642.9835-1.1889 1.7907-2.187 2.0549-1.8054.4697-8.8948.4404-8.8948.4404s-7.08939.044-8.89477-.4404c-.98341-.2642-1.95215-1.0714-2.216352-2.0549-.484369-1.7907-.440336-5.50415-.440336-5.50415s-.044033-3.7135.440336-5.5042c.264202-.98341 1.218262-1.790695 2.216352-2.054896 1.80538-.4696914 8.89477-.44033573 8.89477-.44033573s7.2215 0 9.0269.46969173zm-5.4749 7.52974-5.76835 3.55205v-7.10409z" fill="#000" fill-opacity=".4" fill-rule="evenodd"/></svg>