<svg fill="none" height="18" viewBox="0 0 22 18" width="22" xmlns="http://www.w3.org/2000/svg"><path d="m6.91856 17.8763c8.30194 0 12.84274-6.8781 12.84274-12.84273 0-.19536 0-.38984-.0132-.58344.8834-.63896 1.6459-1.4301 2.2519-2.3364-.8238.36503-1.6977.60441-2.5925.71016.9423-.56409 1.6475-1.45132 1.9844-2.496557-.886.52576-1.8553.896287-2.8661 1.095597-1.3992-1.4877303-3.6224-1.851858-5.423-.888199s-2.7309 3.015449-2.2691 5.004839c-3.62923-.18194-7.01056-1.89611-9.3025-4.715917-1.198012 2.062407-.586091 4.700837 1.39744 6.025357-.71831-.02129-1.42095-.21506-2.04864-.56496v.0572c.000588 2.1486 1.51514 3.99915 3.6212 4.42465-.66451.1812-1.36173.2077-2.03808.0774.59131 1.8387 2.28587 3.0983 4.21696 3.1346-1.59831 1.2561-3.57275 1.938-5.6056 1.936-.359125-.0007-.7179-.0224-1.07448-.0651 2.06416 1.3246 4.46592 2.0272 6.91856 2.024" fill="#000" fill-opacity=".4"/></svg>