<svg fill="none" height="18" viewBox="0 0 18 18" width="18" xmlns="http://www.w3.org/2000/svg"><path clip-rule="evenodd" d="m1.33038 0c-.734561 0-1.33038.577668-1.33038 1.28942v15.42158c0 .7118.595819 1.289 1.33038 1.289h15.33922c.7348 0 1.3304-.5772 1.3304-1.2892v-15.42138c0-.711752-.5956-1.28942-1.3304-1.28942zm4.30519 4.42612c0 .77998-.59012 1.40415-1.53801 1.40415h-.00024-.01758c-.9125 0-1.50238-.62417-1.50238-1.40415 0-.79769.6077-1.40439 1.53825-1.40439.92984 0 1.50214.6067 1.51996 1.40439zm-.17912 2.51358v8.1279h-2.71872v-8.1279zm1.50476 8.128h2.71849v-4.5385c0-.2426.01781-.4858.08956-.65906.19647-.4856.64384-.9882 1.39504-.9882.9835 0 1.3771.74528 1.3771 1.83806v4.3477h2.7185v-4.6603c0-2.49642-1.3411-3.65813-3.1297-3.65813-1.4422 0-2.0889.78763-2.45027 1.34138v-1.15064h-2.71848c.03528.76002-.00001 8.07979-.00024 8.12769z" fill="#000" fill-opacity=".4" fill-rule="evenodd"/></svg>