<svg fill="none" height="18" viewBox="0 0 18 18" width="18" xmlns="http://www.w3.org/2000/svg"><path d="m.993428 0c-.548712 0-.993428.444648-.993428.993428v16.013172c0 .5486.444716.9934.993428.9934h8.620902v-6.9705h-2.34571v-2.7166h2.34571v-2.00338c0-2.32495 1.41997-3.59091 3.49397-3.59091.9935 0 1.8473.07398 2.0961.10703v2.42968l-1.4384.00068c-1.1279 0-1.3463.53596-1.3463 1.32248v1.73442h2.6901l-.3503 2.7166h-2.3398v6.9705h4.5869c.5486 0 .9934-.4448.9934-.9934v-16.013172c0-.54878-.4448-.993428-.9934-.993428z" fill="#000" fill-opacity=".4"/></svg>