<svg fill="none" height="21" viewBox="0 0 20 21" width="20" xmlns="http://www.w3.org/2000/svg"><path clip-rule="evenodd" d="m5.26323 2.6316c0 1.16273.9425 2.10523 2.10523 2.10523h2.10523v-2.10523c0-1.16273-.9425-2.105233-2.10523-2.105233s-2.10523.942503-2.10523 2.105233zm4.21046 5.26318c0-1.16273-.9425-2.10523-2.10523-2.10523h-5.26323c-1.16273 0-2.10523.9425-2.10523 2.10523s.9425 2.10522 2.10523 2.10522h5.26323c1.16273 0 2.10523-.94249 2.10523-2.10522zm-5.26323 5.26062c0 1.1626-.9425 2.1051-2.10523 2.1051s-2.10523-.9425-2.10523-2.1051c0-1.1629.9425-2.1054 2.10523-2.1054h2.10523zm10.52634-5.26057c0 1.16273-.9425 2.10527-2.1053 2.10527-1.1627 0-2.1052-.94254-2.1052-2.10527v-5.26323c0-1.16273.9425-2.105233 2.1052-2.105233 1.1628 0 2.1053.942503 2.1053 2.105233zm1.0526-.00005c0-1.16273.9426-2.10523 2.1054-2.10523 1.1627 0 2.1052.9425 2.1052 2.10523s-.9425 2.10522-2.1052 2.10522h-2.1054zm-10.52617 5.26062c0-1.1629.9425-2.1054 2.10523-2.1054s2.10523.9425 2.10523 2.1054v5.2631c0 1.1626-.9425 2.1052-2.10523 2.1052s-2.10523-.9426-2.10523-2.1052zm7.36827 2.1078c-1.1627 0-2.1052-.9425-2.1052-2.1051 0-1.1629.9425-2.1054 2.1052-2.1054h5.2633c1.1627 0 2.1052.9425 2.1052 2.1054 0 1.1626-.9425 2.1051-2.1052 2.1051zm0 1.0525c1.1628 0 2.1053.9426 2.1053 2.1054 0 1.1625-.9425 2.1052-2.1053 2.1052-1.1627 0-2.1052-.9427-2.1052-2.1052v-2.1054z" fill="#000" fill-opacity=".4" fill-rule="evenodd"/></svg>