<svg height="40" width="115" xmlns="http://www.w3.org/2000/svg"><g fill="#fff"><path d="m11.2863 28.5v-7.5918h-4.8012v7.5918h-2.7468v-17.25h2.7468v7.1313h4.8012v-7.1313h2.7468v17.25z"/><path d="m27.767 22.75c0 .2096-.0149.5166-.0447.9209h-8.5976c.1488.846.4875 1.4974 1.0161 1.9541.5359.4567 1.2282.6851 2.0768.6851 1.1463 0 1.9093-.4193 2.289-1.2579h2.97c-.3349 1.183-.9751 2.0927-1.9205 2.7291-.9379.6289-2.088.9433-3.4502.9433-1.6451 0-3.0036-.5578-4.0755-1.6733-1.0644-1.1156-1.5967-2.5493-1.5967-4.3013s.5323-3.1857 1.5967-4.3013c1.0719-1.1155 2.4304-1.6733 4.0755-1.6733s2.9999.5578 4.0644 1.6733c1.0644 1.1156 1.5967 2.5493 1.5967 4.3013zm-3.7071-2.8975c-.5062-.4417-1.1575-.6626-1.954-.6626s-1.4515.2209-1.9651.6626c-.5137.4343-.8449 1.0557-.9938 1.8643h5.9067c-.1489-.8086-.4801-1.43-.9938-1.8643z"/><path d="m37.0903 28.5v-1.707c-.6997 1.2877-1.913 1.9316-3.64 1.9316-.6848 0-1.3101-.1086-1.8758-.3257-.5583-.2171-1.0273-.5802-1.4069-1.0893-.3722-.5166-.5583-1.1455-.5583-1.8867 0-.5915.1042-1.1044.3126-1.5386.2159-.4343.4988-.7712.8486-1.0108.3499-.2395.7481-.4417 1.1948-.6064.4466-.1722.9007-.292 1.3622-.3594s.9156-.1422 1.3622-.2246.8449-.161 1.1947-.2358c.3499-.0824.629-.2134.8375-.3931.2158-.1797.3238-.4043.3238-.6738 0-.4343-.201-.7787-.603-1.0332-.3945-.2621-.897-.3931-1.5073-.3931-.6477 0-1.165.1685-1.5521.5054-.3796.3369-.5694.8198-.5694 1.4487h-2.8585c0-.7187.1377-1.3514.4132-1.8979.2754-.5466.6513-.9771 1.1277-1.2915.4764-.322 1.0012-.5578 1.5744-.7076.5806-.1572 1.2022-.2358 1.8647-.2358.655 0 1.2617.0711 1.82.2134.5657.1347 1.0793.3444 1.5408.6289.4616.2845.8263.6738 1.0943 1.1679.268.4867.402 1.0557.402 1.7071v8.0073zm-4.6672-3.2681c0 .3894.1451.6888.4354.8985.2978.2021.6849.3032 1.1613.3032.8486 0 1.5706-.2358 2.1661-.7075.603-.4717.9044-1.1268.9044-1.9654v-.5278c-.3126.1348-.7034.2546-1.1724.3594-.4689.0973-.8932.1834-1.2729.2583-.3796.0674-.7481.1535-1.1054.2583-.3498.1048-.6252.2508-.8262.438-.1936.1797-.2903.408-.2903.685z"/><path d="m45.4981 22.6377v5.8623h-2.7467v-11.5h2.7467v1.8643c.8486-1.3926 2.129-2.0889 3.8411-2.0889.2903 0 .4801.015.5694.0449v3.0098c-.3424-.1198-.7369-.1797-1.1836-.1797-1.0198 0-1.8125.2583-2.3783.7749-.5657.5166-.8486 1.2541-.8486 2.2124z"/><path d="m55.4133 24.5693c0 .5616.1377.9733.4132 1.2354.2754.262.7071.3931 1.2952.3931.4466 0 .8672-.0674 1.2617-.2022v2.4595c-.5508.1797-1.1538.2695-1.8088.2695-.5955 0-1.1203-.0674-1.5744-.2021-.4541-.1273-.8635-.337-1.2282-.6289-.3573-.292-.6328-.7001-.8263-1.2242-.1861-.5315-.2792-1.1717-.2792-1.9204v-5.3344h-1.8311v-2.4146h1.8311v-3.4478h2.7468v3.4478h2.9701v2.4146h-2.9701z"/><path d="m71.313 22.75c0 .2096-.015.5166-.044.9209h-8.5979c.1488.846.4875 1.4974 1.016 1.9541.536.4567 1.2283.6851 2.0769.6851 1.1463 0 1.9093-.4193 2.2889-1.2579h2.9701c-.335 1.183-.975 2.0927-1.92 2.7291-.9384.6289-2.0885.9433-3.4507.9433-1.6451 0-3.0036-.5578-4.0755-1.6733-1.0645-1.1156-1.5967-2.5493-1.5967-4.3013s.5322-3.1857 1.5967-4.3013c1.0719-1.1155 2.4304-1.6733 4.0755-1.6733s2.9999.5578 4.0647 1.6733c1.064 1.1156 1.596 2.5493 1.596 4.3013zm-3.7067-2.8975c-.5062-.4417-1.1575-.6626-1.954-.6626s-1.4515.2209-1.9652.6626c-.5136.4343-.8448 1.0557-.9937 1.8643h5.9067c-.1489-.8086-.4802-1.43-.9938-1.8643z"/><path d="m80.592 28.5-2.881-3.9082-2.601 3.9082h-3.205l4.321-5.9297-4.098-5.5703h3.205l2.635 3.5601 2.401-3.5601h3.193l-4.087 5.6377 4.322 5.8623z"/></g></svg>