<svg fill="none" height="28" viewBox="0 0 166 28" width="166" xmlns="http://www.w3.org/2000/svg"><path d="m35.452 22h9.944v-2.64h-7.04v-12.76h-2.904zm15.3998.308c2.288 0 2.97-1.232 3.168-1.782h.418v.022c0 .88.792 1.452 1.87 1.452h1.848v-2.288h-.88c-.396 0-.616-.22-.616-.66v-4.07c0-2.728-1.804-4.202-4.664-4.202-2.838 0-4.268 1.43-4.796 3.08l2.552.858c.198-.99.814-1.694 2.2-1.694 1.408 0 2.024.748 2.024 1.76v.616h-2.992c-2.464 0-4.224 1.166-4.224 3.41s1.76 3.498 4.092 3.498zm.484-2.244c-1.188 0-1.804-.55-1.804-1.342s.616-1.254 1.65-1.254h2.794v.22c0 1.452-1.1 2.376-2.64 2.376zm15.4028 2.244c2.618 0 4.928-2.024 4.928-5.588v-.352c0-3.564-2.288-5.588-4.928-5.588-1.98 0-2.926.792-3.388 1.562h-.396v-5.742h-2.772v15.4h2.728v-1.32h.396c.506.836 1.452 1.628 3.432 1.628zm-.836-2.42c-1.694 0-2.992-1.122-2.992-3.234v-.22c0-2.112 1.276-3.234 2.992-3.234s2.992 1.122 2.992 3.234v.22c0 2.112-1.298 3.234-2.992 3.234zm13.2813 2.42c2.992 0 4.29-1.694 4.906-2.86l-2.266-1.188c-.374.836-1.012 1.628-2.552 1.628s-2.706-1.034-2.772-2.53h7.942v-.946c0-3.344-2.09-5.632-5.302-5.632-3.256 0-5.456 2.2-5.456 5.632v.264c0 3.432 2.222 5.632 5.5 5.632zm-2.662-7.018c.198-1.254 1.1-2.09 2.596-2.09 1.43 0 2.376.836 2.508 2.09zm10.3872 6.71h2.772v-15.4h-2.772zm15.1409.308c3.564 0 5.83-1.936 5.83-4.752s-2.178-3.96-5.456-4.664l-.506-.11c-1.848-.396-2.706-.946-2.706-2.09s.814-1.848 2.574-1.848 2.838.704 2.838 2.464v.66h2.86v-.66c0-3.344-2.398-5.016-5.698-5.016s-5.434 1.672-5.434 4.488 1.87 3.894 5.06 4.598l.506.11c1.98.44 3.102.88 3.102 2.156 0 1.232-.99 2.112-2.97 2.112s-3.19-.924-3.19-2.772v-.616h-2.86v.616c0 3.344 2.486 5.324 6.05 5.324zm12.264-.308h3.08v-2.288h-2.112c-.396 0-.616-.22-.616-.66v-5.676h2.992v-2.288h-2.992v-3.388h-2.772v3.388h-2.728v2.288h2.728v6.16c0 1.496.968 2.464 2.42 2.464zm10.011.176c1.958 0 2.838-.858 3.19-1.606h.396v1.43h2.728v-10.912h-2.772v5.544c0 2.024-.99 3.212-2.684 3.212-1.496 0-2.332-.814-2.332-2.464v-6.292h-2.772v6.512c0 2.706 1.694 4.576 4.246 4.576zm13.799.132c1.98 0 2.926-.792 3.432-1.628h.396v1.32h2.728v-15.4h-2.772v5.742h-.396c-.462-.77-1.408-1.562-3.388-1.562-2.64 0-4.928 2.024-4.928 5.588v.352c0 3.564 2.31 5.588 4.928 5.588zm.836-2.42c-1.694 0-2.992-1.122-2.992-3.234v-.22c0-2.112 1.276-3.234 2.992-3.234s2.992 1.122 2.992 3.234v.22c0 2.112-1.298 3.234-2.992 3.234zm10.179-10.076c1.012 0 1.782-.704 1.782-1.76s-.77-1.76-1.782-1.76-1.782.704-1.782 1.76.77 1.76 1.782 1.76zm-1.386 12.188h2.772v-10.912h-2.772zm11.036.308c3.256 0 5.72-2.068 5.72-5.588v-.352c0-3.52-2.464-5.588-5.72-5.588s-5.72 2.068-5.72 5.588v.352c0 3.52 2.464 5.588 5.72 5.588zm0-2.464c-1.694 0-2.948-1.144-2.948-3.19v-.22c0-2.046 1.232-3.19 2.948-3.19s2.948 1.144 2.948 3.19v.22c0 2.046-1.254 3.19-2.948 3.19z" fill="#000"/><g clip-rule="evenodd" fill="#e68f52" fill-rule="evenodd"><path d="m3 6h16v16h-16z" fill-opacity=".3"/><path d="m6 5v-2h-6v6h2v10h-2v6h6v-2h10v2h6v-6h-2v-10h2v-6h-6v2zm-2 4h2v-2h10v2h2v10h-2v2h-10v-2h-2z"/></g></svg>