<svg fill="none" height="56" viewBox="0 0 156 56" width="156" xmlns="http://www.w3.org/2000/svg"><path d="m105.874 40.5034c.267.9005.64 1.7211 1.097 2.4688-.044.0233-.088.0495-.133.0729l-1.131.6216c-7.914 4.3456-15.7382 8.5604-22.5915 12.1379l-.2823.1487c-.1142.0812-.2712.0537-.3496-.0606-.0827-.1157-.0538-.2712.0591-.3525l.3345-.1941c8.4655-5.1853 16.3335-10.1255 22.9758-14.8276.007-.0052.015-.0096.021-.0151zm-62.897-30.2003c28.651-6.2593 96.025-16.64917 106.497-5.0986 4.665 5.1467-5.192 14.4489-19.861 24.2095-.65-2.5623-2.093-4.6084-4.119-5.9109 3.757-4.8837 4.531-9.0254 1.29-12.239-10.623-10.53305-59.9869-4.67309-83.7244-.4461l-.6622.1294c-.1391.0234-.2699-.0674-.2946-.2065-.0221-.1363.0688-.2685.2065-.2933z" fill="#bf3f32"/><path d="m119.763 23.2246c5.258 0 8.706 3.4909 8.924 8.8434 1.451-.2907 3.711-.9302 5.3-1.503-.263.8958-.532 2.1344-.806 3.3822l-.092.4158-.046.2073-.595 2.6491h.069c4.715-5.429 6.944-6.6544 8.621-6.6544.99 0 1.636.5177 1.677 1.6233.011.559-.2 1.6096-.635 3.2412l-1.624 5.9247c-.171.5865-.422 1.4691-.395 2.0611.009.4627.268.6458.545.6458.836 0 1.887-1.5412 2.393-2.3435-.011-.1263-.019-.2555-.024-.3873-.201-5.579 5.027-10.7643 9.307-10.7643 1.836 0 3.539.8027 3.615 2.7799.157 4.4376-6.073 5.7952-10.178 5.8875-.134.4626-.183.9294-.158 1.6385.066 1.8395 1.181 3.3884 3.481 3.3884 1.988 0 3.976-1.6013 4.981-3.1792l.504.3415c-1.272 2.5926-3.867 4.68-6.912 4.68-2.112 0-3.901-1.1917-4.462-3.4526-1.123 1.7686-2.412 3.4461-4.144 3.4461-.997 0-1.667-.4929-1.713-1.604-.022-.7325.223-1.7569.556-2.8942l1.462-5.0573c.174-.5218.671-2.342.645-3.1434-.022-.5562-.343-.7999-.807-.7999-1.033 0-2.715 1.4856-7.089 6.0403l-1.433 6.9339h-2.55c.386-1.4815.821-3.3568 1.22-5.1481l.993-4.3771c.104-.4585.601-2.4343.593-2.7097-.022-.464-.462-.5521-.931-.5521-.284 0-.917.0663-1.36.1232-.119 7.0055-5.122 13.2514-13.09 13.2514-5.28 0-8.734-3.511-8.927-8.9069-.241-6.9353 5.193-14.0276 13.085-14.0276zm-67.5316 5.0607c1.4579 0 2.357.0785 3.4487.643 1.0862.57 1.8421 1.3948 2.2551 2.4715.4185 1.0588.5052 2.2498.2794 3.5441-.3786 2.1506-1.4276 3.8469-3.1458 5.093-1.7057 1.2447-3.2394 1.5724-5.4325 1.5807-.7765 0-1.4249-.0813-1.9646-.2121-.5273-.1377-.9472-.3056-1.268-.5094-.3042-.2052-.6292-.4902-1.0477-.9459l-1.0408 5.9811h-6.2751l3.0976-17.4491h5.5868l-.4323 2.2278c.486-.665 1.2597-1.2117 2.3294-1.6564 1.078-.4406 2.2909-.7683 3.6098-.7683zm66.8886-4.1299c-5.591 0-9.2 7.9459-9.008 13.3143.135 4.0645 2.705 7.3924 6.059 7.3924 6.498 0 9.265-7.9789 9.072-13.3116-.137-4.0741-2.775-7.3951-6.123-7.3951zm-103.9361-1.0666c2.1422-.0234 3.7957.1185 6.2917 1.0616l-.8054 4.5217c-1.8365-1.0465-3.2023-1.3549-4.9466-1.3549-5.5468 0-7.7303 3.8897-7.82392 5.7319-.13078 2.7675 2.28402 4.2766 5.32382 4.2766 2.0486 0 3.2146-.1583 5.2852-.5687l-.8439 4.6608c-2.0747.2147-4.2981.3029-6.4362.3085-3.70339.0164-12.044973-1.7019-11.1638681-8.5312.8645841-6.7219 7.8514681-10.0278 15.1191681-10.1063zm74.7197 4.9694c4.7814 0 6.3054 1.37 6.2669 3.12-.0262.6389-.1391 1.202-.3139 2.1672l-1.1537 6.5237c-.0992.5755.1142 1.0271.6484 1.3479l-.0399.2258-6.6427.0124-.051-1.6591c-.9719.5879-2.1463 1.0767-3.1954 1.3617-1.0573.2781-1.9095.3924-3.1967.3924-2.1449 0-3.3647-.2148-4.2169-.9638-.866-.771-1.2831-1.2764-1.2363-2.3297.0234-.6113.3414-1.3975.7999-1.9345.4598-.5604 1.0876-.9156 1.7732-1.2378s1.4965-.5604 2.6557-.7559c1.1826-.1831 2.8237-.3814 5.0154-.5645 1.1413-.095 1.8434-.3552 2.1711-.4805.464-.1804.6471-.38.7145-.7545.1184-.6568-.0922-1.0492-.9747-1.2282-2.4065-.475-6.8809.3056-9.1952.8798l1.2515-3.3899c3.0618-.4474 5.9075-.7325 8.9198-.7325zm-57.3916-.0236c4.7841 0 6.315 1.3658 6.2668 3.1186-.0289.6375-.1376 1.1951-.3083 2.1699l-1.162 6.5154c-.0991.5783.1156 1.0326.6526 1.3438l-.0358.2547-6.6455-.0096-.0606-1.6578c-.9678.5852-2.1353 1.0768-3.1926 1.3659-1.0532.2699-1.9054.3896-3.1844.3896-2.1477 0-3.3771-.223-4.2251-.9665-.8619-.7683-1.279-1.2764-1.2391-2.3324.033-.6086.3483-1.3879.804-1.9345.4598-.5535 1.0863-.9157 1.7691-1.2351.6856-.3277 1.4924-.5631 2.6667-.749 1.1758-.1914 2.8127-.3814 5.0044-.5645 1.1524-.095 1.8545-.3621 2.1849-.4929.4571-.179.6374-.3759.7049-.7477.1225-.6705-.0923-1.0519-.9802-1.2295-2.3956-.4709-6.8823.3043-9.1952.8839l1.2569-3.3912c3.0509-.4461 5.9103-.7311 8.9185-.7311zm66.8967-4.7614 6.3133.1776-3.092 17.9765-6.4814.0096zm-32.6957 5.1452-2.306 13.0184h-6.3646l2.3074-13.0184zm10.62-4.1752-.709 4.099h3.2587l-.6182 2.6229-3.1623-.0082-1.9206 10.4697-.0299-.0002c-.2231-.0014-1.6578-.0103-3.1124-.0151l-.2567-.0008c-.3418-.001-.6809-.0017-1.0017-.0021h-.6843c-.7826.0011-1.3388.0061-1.3456.0182l1.9136-10.4436h-2.4203l.4915-2.6408h2.4836l.4571-2.6505zm11.9786 11.2089c-.285.0963-.6553.2023-1.1041.3056-.4461.106-1.2694.2382-2.4726.4351-.8178.1294-1.3988.3015-1.7127.5356-.3056.2231-.4873.5012-.552.8371-.0661.3594.0647.6499.3634.8661.3222.2217.8536.3291 1.6011.3291.5549 0 1.0973-.0826 1.6328-.2506.5425-.1818.9927-.4131 1.3451-.7119.2437-.2216.4337-.5094.5658-.8467.0826-.2176.1928-.7188.3332-1.4994zm-57.393-.032c-.2822.106-.647.212-1.0986.3057-.4502.1019-1.2735.2492-2.4685.4378-.8233.1281-1.3932.3015-1.7195.5342-.3112.2314-.4943.5054-.548.8413-.0633.358.0537.643.3635.8674.3153.2203.8439.3332 1.5901.3332.559 0 1.1083-.0895 1.6397-.2588.5369-.1763.9899-.4158 1.3396-.7119.2547-.2203.4378-.5025.5754-.8398.0785-.2217.1928-.7215.3263-1.5091zm119.9994-4.1079c-2.61 0-5.386 5.1137-5.865 7.1749 4.283 0 7.616-2.55 7.511-5.4194-.035-1.0505-.563-1.7555-1.646-1.7555zm-102.2914.1564c-.8343 0-1.5887.252-2.2606.7587-.6635.5067-1.0862 1.2447-1.2583 2.2291-.1996 1.136-.0826 1.9511.3676 2.4564.4543.4998 1.1083.7504 1.9673.7504.5783 0 1.1785-.1033 1.6191-.3208.5452-.2878.921-.5921 1.2459-1.0712.3511-.5053.581-1.0657.6994-1.7184.1817-1.0271.0289-1.7982-.4488-2.3049-.4626-.5218-1.1014-.7793-1.9316-.7793zm14.841-8.0041c1.8902 0 3.2697.8688 3.088 1.9386-.1996 1.0712-1.8847 1.9372-3.7777 1.9372-1.8958 0-3.267-.866-3.0756-1.9372.1899-1.0698 1.8792-1.9386 3.7653-1.9386z" fill="#1d4873"/></svg>