<svg fill="none" height="56" viewBox="0 0 125 56" width="125" xmlns="http://www.w3.org/2000/svg"><path d="m99.8417 24.3271c13.5193 0 24.4583 10.9454 24.4583 24.4363 0 2.2909-.327 4.509-.909 6.6181-.084.3115-.296.6185-.614.6185h-34.5551c-.3166 0-.4033-.3661-.3166-.6458l.0161-.0454.7268-1.8545c2.0148-5.256 7.6984-9.5497 13.0308-9.882l10.083-.5907c.472-.0364.908-.3636 1.054-.8.073-.2546.036-.5818-.109-.8-.134-.2014-.361-.3408-.624-.3611l-.067-.0025-9.521-.5819c-2.363-.109-4.3251-1.0545-5.488-2.6908-1.245-1.7439-1.5499-4.08-.8469-6.6332l.0473-.1668 1.7445-6.0727c.0894-.2898.3634-.5091.6541-.5091.3998-.0364.8359-.0364 1.2357-.0364z" fill="#f0b156"/><path d="m67.1336 0c14.0281 0 25.7667 9.81813 28.6741 22.9817.0654.2618.0425.5236-.0422.7854l-.0305.0873-2.5803 6.7272c-2.0148 5.256-7.7341 9.5497-13.0319 9.882l-.1604.0089-45.1371.5818c-.4725.0364-.9086.3637-1.054.8-.0727.2909-.0363.5818.1091.8.1341.2014.3612.3408.624.3611l.0665.0025 44.7374.5819c2.3622.109 4.3247 1.0545 5.4876 2.6909 1.245 1.7438 1.5499 4.0799.8469 6.6331l-.0473.1668-.6178 2.2182c-.0954.31-.2886.6912-.5894.6912h-83.452368c-.301522 0-.40667-.3697-.454172-.6549-.109027-.909-.181711-1.8181-.181711-2.7272 0-10.2181 8.104341-18.509 18.243851-18.7999-.3634-1.4545-.4725-3.0182-.3271-4.6182.6178-6.2181 5.5967-11.1999 11.8113-11.8181 3.4888-.3272 6.7233.6909 9.2673 2.5818 3.9249-11.59991 14.9003-19.9635 27.8382-19.9635z" fill="#e6883b"/></svg>