<svg fill="none" height="17" viewBox="0 0 82 17" width="82" xmlns="http://www.w3.org/2000/svg"><path d="m.452 16h2.904v-6.402h5.72v6.402h2.904v-15.400001h-2.904v6.358001h-5.72v-6.358001h-2.904zm19.4975.308c2.992 0 4.29-1.694 4.906-2.86l-2.266-1.188c-.374.836-1.012 1.628-2.552 1.628s-2.706-1.034-2.772-2.53h7.942v-.946c0-3.344-2.09-5.632-5.302-5.632-3.256 0-5.456 2.2-5.456 5.632v.264c0 3.432 2.222 5.632 5.5 5.632zm-2.662-7.018c.198-1.254 1.1-2.09 2.596-2.09 1.43 0 2.376.836 2.508 2.09zm13.7753 7.018c2.288 0 2.97-1.232 3.168-1.782h.418v.022c0 .88.792 1.452 1.87 1.452h1.848v-2.288h-.88c-.396 0-.616-.22-.616-.66v-4.07c0-2.728-1.804-4.202-4.664-4.202-2.838 0-4.268 1.43-4.796 3.08l2.552.858c.198-.99.814-1.694 2.2-1.694 1.408 0 2.024.748 2.024 1.76v.616h-2.992c-2.464 0-4.224 1.166-4.224 3.41s1.76 3.498 4.092 3.498zm.484-2.244c-1.188 0-1.804-.55-1.804-1.342s.616-1.254 1.65-1.254h2.794v.22c0 1.452-1.1 2.376-2.64 2.376zm8.8467 1.936h2.772v-6.204c0-1.54 1.012-2.288 2.42-2.288h1.364v-2.464h-1.32c-1.012 0-1.804.396-2.112 1.276h-.396v-1.232h-2.728zm12.9027 0h3.08v-2.288h-2.112c-.396 0-.616-.22-.616-.66v-5.676h2.992v-2.288h-2.992v-3.388h-2.772v3.388h-2.728v2.288h2.728v6.16c0 1.496.968 2.464 2.42 2.464zm10.4385.308c2.992 0 4.29-1.694 4.906-2.86l-2.266-1.188c-.374.836-1.012 1.628-2.552 1.628s-2.706-1.034-2.772-2.53h7.942v-.946c0-3.344-2.09-5.632-5.302-5.632-3.256 0-5.456 2.2-5.456 5.632v.264c0 3.432 2.222 5.632 5.5 5.632zm-2.662-7.018c.198-1.254 1.1-2.09 2.596-2.09 1.43 0 2.376.836 2.508 2.09zm8.7102 6.71h3.256l2.486-3.674h.396l2.486 3.674h3.256l-3.96-5.5 3.916-5.412h-3.212l-2.486 3.63h-.396l-2.486-3.63h-3.212l3.916 5.412z" fill="#000" fill-opacity=".5"/></svg>