<svg fill="none" height="56" viewBox="0 0 133 56" width="133" xmlns="http://www.w3.org/2000/svg"><path d="m98.2789 16.0637c2.8631 0 5.5031.4834 7.8831 1.4874s4.425 2.3798 6.135 4.1647c1.674 1.7849 3.012 3.8672 3.979 6.2098.93 2.3798 1.413 4.9084 1.413 7.6229v3.5325h-29.5615l.1116.3347c.6321 2.1939 1.822 3.9787 3.5697 5.243 1.7476 1.3015 4.0531 1.9336 6.8419 1.9336 4.4623 0 8.0323-2.417 9.5193-4.2019l7.139 5.429c-3.123 3.5697-8.329 7.3997-16.7326 7.3997-2.9004 0-5.6149-.5206-8.0691-1.5617-2.4542-1.004-4.5737-2.417-6.2842-4.1647s-3.0863-3.83-4.0531-6.2098c-.9668-2.3799-1.4502-4.9456-1.4502-7.6601 0-2.7144.4834-5.2802 1.5246-7.66 1.004-2.3798 2.417-4.4621 4.1646-6.2098 1.7477-1.7477 3.8301-3.1235 6.2099-4.1647 2.3798-1.004 4.9455-1.5246 7.66-1.5246zm-29.5246-13.94419v14.68789h7.1767v8.4781h-7.1767v13.1634c0 1.4873.0744 2.7144.2231 3.6441.186.9668.5206 1.7104 1.0412 2.231s1.3015.8925 2.3426 1.0412c.8925.1487 2.1196.2231 3.5698.2231v9.2218h-1.3015c-3.012 0-5.5405-.2603-7.5485-.8181-1.9708-.5577-3.6069-1.4502-4.834-2.7145-1.2271-1.2642-2.1195-2.9375-2.6401-4.9827-.5206-2.0823-.7809-4.6852-.7809-7.7716v-36.40369zm-58.5657 14.68789v37.6308h-9.891115v-37.6308zm122.5604-16.588284v54.219084h-9.928v-54.219084zm-95.0066 15.807484c4.9083 0 8.7755 1.4873 11.5272 4.4621s4.1647 7.2138 4.1275 12.5684v21.344h-10.0027v-19.9682l-.0012-.2142c-.0337-2.9841-.7753-5.3289-2.1555-6.9996-1.4502-1.7105-3.6441-2.6029-6.5073-2.6029-2.417 0-4.5365.8924-6.2842 2.6773-1.6361 1.6733-2.4913 4.2762-2.6029 7.8088v19.3359h-9.8539v-37.6308h9.7795v5.3918l.5578-.7065c1.3015-1.7105 2.9748-3.0491 4.9084-4.0159 1.9708-.9668 4.1275-1.4502 6.5073-1.4502zm60.4249 8.478c-6.8047.0372-9.9654 4.834-9.9654 7.5857l19.9681-.0372c0-2.7516-3.198-7.5485-10.0027-7.5485z" fill="#000"/><path d="m10.4489 0v10.4489h-10.4489v-10.4489z" fill="#2c66b1"/></svg>