<svg fill="none" height="56" viewBox="0 0 140 56" width="140" xmlns="http://www.w3.org/2000/svg"><path d="m0 0v3.83138h27.2507v-3.83138zm31.1116 0v3.83138h38.8337s-3.9667-3.83138-9.2203-3.83138zm46.4516 0v3.83138h23.4938l-1.3945-3.83138zm40.3378 0-1.395 3.83138h23.281v-3.83138zm-117.901 7.45108v3.83142h27.2507v-3.83142zm31.1116.00546v3.82606h43.3398s-.5061-2.94882-1.389-3.82606zm46.4516 0v3.82606h26.0698l-1.291-3.82606zm37.5488 0-1.291 3.82606h25.966v-3.82606zm-107.28082 7.44566v3.8368h11.80162v-3.8368zm31.11182 0v3.8368h11.8015v-3.8368zm23.2804 0v3.8368h11.8016s.7493-2.0262.7493-3.8368zm23.1711 0v3.8368h20.9235l-1.395-3.8368zm27.1465 0-1.4 3.8368h21.028v-3.8368zm-104.70982 7.4566v3.8314h11.80162v-3.8314zm31.11182 0v3.8314h30.1436s2.5217-1.9659 3.325-3.8314zm46.4515 0v3.8314h11.8016v-2.1327l.7493 2.1327h21.6176l.804-2.1327v2.1327h11.802v-3.8314h-22.154l-1.176 3.2452-1.181-3.2452zm-77.56332 7.4511v3.8314h11.80162v-3.8314zm31.11182 0v3.8314h33.4686c-.8034-1.8593-3.325-3.8314-3.325-3.8314zm46.4515 0v3.8314h11.8016v-3.8314zm13.9453 0 1.4272 3.8314h16.209l1.357-3.8314zm21.0272 0v3.8314h11.802v-3.8314zm-112.53582 7.4511v3.8312h11.80162v-3.8312zm31.11182 0v3.8312h11.8015v-3.8312zm23.2804 0v3.8312h12.5507c0-1.8081-.7492-3.8312-.7492-3.8312zm23.1711 0v3.8312h11.8016v-3.8312zm16.6255 0 1.383 3.8312h10.867l1.394-3.8312zm18.347 0v3.8312h11.802v-3.8312zm-120.15378 7.4511v3.8368h27.25068v-3.8368zm30.89838 0v3.8368h41.9508c.8829-.8785 1.389-3.8368 1.389-3.8368zm46.665 0v3.8368h19.4195v-3.8368zm26.9284 0 1.421 3.8368h5.529l1.335-3.8368zm15.662 0v3.8368h19.633v-3.8368zm-120.15378 7.4565v3.8314h27.25068v-3.8314zm30.89838 0v3.8259h29.6134c5.2536 0 9.2203-3.8259 9.2203-3.8259zm46.665 0v3.8314h19.4195v-3.8314zm29.6244 0 1.367 3.8206.235.0053 1.389-3.8259zm12.966 0v3.8314h19.633v-3.8314z" fill="#006ebf"/></svg>