<svg fill="none" height="56" viewBox="0 0 123 56" width="123" xmlns="http://www.w3.org/2000/svg"><path d="m123 0v56h-123v-56zm-96.5197 5.47486c-13.1618 0-20.68285 3.91061-20.68285 13.13964 0 7.8436 6.07965 10.2921 12.71905 11.4786l.7682.1315c.2567.0422.5139.0827.7714.1218l10.3414 1.5642c4.5439.7821 7.0509 1.5643 7.0509 4.8492 0 3.5977-3.6038 5.162-8.9312 5.162-5.014 0-10.6548-.9386-10.8115-6.7263h-12.69169c.13319 11.1687 9.66259 13.7482 18.77309 14.2707l.8025.041.7989.0312c1.062.0357 2.1102.0482 3.1287.0482 16.2955 0 21.6229-6.257 21.6229-14.0782 0-7.6648-5.7974-10.4805-13.3184-11.7319l-14.2586-2.3463c-2.9771-.4693-4.8574-1.7207-4.8574-3.9106 0-2.8157 2.9771-4.8492 7.6777-4.8492 4.544 0 9.8714.6257 10.4981 6.1005h12.6917c-.7834-11.88822-13.4751-13.29604-22.0929-13.29604zm57.8178 1.09497h-30.2408l.1567 41.76537h11.2815v-15.486h14.102c3.4471 0 5.9541 1.5642 5.9541 7.3519l.0006 1.0016c.0064 3.6546.0871 5.2491 1.0962 6.9761h12.3784c-2.037-2.19-2.1937-7.0391-2.1937-9.0727 0-4.067-.7834-10.324-5.7974-11.1061v-.1564c4.7006-1.7207 6.7376-4.8492 6.7376-10.0112 0-4.2235-1.8803-11.26257-13.4752-11.26257zm30.3979 0h-11.282v41.76537h11.282zm-34.7852 7.97767c2.6637 0 5.9542.9385 5.9542 5.162 0 3.9106-2.9771 5.3184-5.4841 5.3184h-15.042v-10.4804z" fill="#2c4653"/></svg>