<svg fill="none" height="56" viewBox="0 0 84 56" width="84" xmlns="http://www.w3.org/2000/svg"><path clip-rule="evenodd" d="m31.3183 7.48179v-7.48179h52.6816v55.5569h-52.6198v-6.5234c1.113.1237 2.226.1855 3.4008.1855 12.1811 0 33.6681-6.2142 42.8812-13.9433-.7465-.7465-3.0664-2.0236-5.2737-3.2388-1.8151-.9993-3.5541-1.9566-4.2795-2.5426-9.7078 8.3475-19.7247 15.4273-33.5753 15.4273-1.0512 0-2.1333-.0927-3.1844-.2164v-4.6374c1.2676.2164 2.5351.34 3.8336.34 14.8709 0 29.1543-17.375 29.1543-17.375s-12.4594-16.29301-31.5348-15.64376zm0 4.08281v5.0056c.9275-.0927 1.855-.1546 2.7825-.1237 8.7802 0 14.0051 6.8326 14.0051 6.8326l-7.1417 5.9978c-.186-.3125-.3649-.6147-.5378-.9069l-.0007-.0012c-2.7871-4.7095-4.0408-6.8281-9.0765-7.4394v15.2109c1.2985.4329 2.6588.6493 4.05.6493 10.4189 0 20.1267-13.4796 20.1267-13.4796s-8.9967-12.2429-22.7236-11.8101c-.4844 0-.9687.0296-1.453.0599v-4.07857c-16.8186 1.36032-31.3493 15.58187-31.3493 15.58187s8.22378 23.8057 31.3184 25.9699v-4.3283c-16.9422-2.1023-22.72362-20.7759-22.72362-20.7759s7.56422-11.1765 22.72352-12.3642zm0 0v-.0029c.0103-.0006.0207-.0013.031-.0019v.0024c-.0103.0008-.0207.0016-.031.0024zm-.0001 24.5767v3.9573c-12.7994-2.2878-16.3548-15.6128-16.3548-15.6128s6.1524-6.8016 16.3548-7.9146v4.3283h-.0309c-5.3485-.6492-9.5532 4.3592-9.5532 4.3592s2.3806 8.4402 9.5841 10.8826z" fill="#86b737" fill-rule="evenodd"/></svg>