<svg fill="none" height="24" viewBox="0 0 24 24" width="24" xmlns="http://www.w3.org/2000/svg"><g clip-rule="evenodd" fill-rule="evenodd"><path d="m2.52 17.6999c1.39181 0 2.52-1.1282 2.52-2.5198v-2.5202h-2.52c-1.39181 0-2.52 1.1282-2.52 2.5202 0 1.3916 1.12819 2.5198 2.52 2.5198zm6.30017-5.04c-1.39181 0-2.52 1.1282-2.52 2.5202v6.3c0 1.3916 1.12819 2.52 2.52 2.52 1.39183 0 2.52003-1.1284 2.52003-2.52v-6.3c0-1.392-1.1282-2.5202-2.52003-2.5202z" fill="#c0205e"/><path d="m6.30017 2.57957c0 1.39181 1.12819 2.52 2.52 2.52h2.52003v-2.52c0-1.39181-1.1282-2.5199997-2.52003-2.5199997-1.39181 0-2.52 1.1281897-2.52 2.5199997zm5.04003 6.30029c0-1.39181-1.1282-2.52-2.52001-2.52h-6.30019c-1.39181 0-2.52 1.12819-2.52 2.52 0 1.39184 1.12819 2.52004 2.52 2.52004h6.30019c1.39181 0 2.52001-1.1282 2.52001-2.52004z" fill="#48abd1"/><path d="m15.1202 11.3998c1.3918 0 2.52-1.1282 2.52-2.52004v-6.30019c0-1.39181-1.1282-2.5199997-2.52-2.5199997s-2.52 1.1281897-2.52 2.5199997v6.30019c0 1.39184 1.1282 2.52004 2.52 2.52004zm6.3001-5.03994c-1.3918 0-2.5202 1.12819-2.5202 2.52v2.52004h2.5202c1.3918 0 2.52-1.1282 2.52-2.52004 0-1.39181-1.1282-2.52-2.52-2.52z" fill="#08a66c"/><path d="m12.6002 15.1801c0 1.3916 1.1282 2.5198 2.52 2.5198h6.3002c1.3918 0 2.52-1.1282 2.52-2.5198 0-1.392-1.1282-2.5202-2.52-2.5202h-6.3002c-1.3918 0-2.52 1.1282-2.52 2.5202zm5.04 6.2998c0-1.3918-1.1282-2.5202-2.52-2.5202h-2.52v2.5202c0 1.3916 1.1282 2.52 2.52 2.52s2.52-1.1284 2.52-2.52z" fill="#e8aa30"/></g></svg>