<svg fill="none" height="80" viewBox="0 0 179 80" width="179" xmlns="http://www.w3.org/2000/svg"><path d="m128.302 62.6088c-.678-.6976-1.231-.6055-1.909.1162.28-3.2397 1.26-6.38 2.873-9.2036 1.593-2.9355 4.248-4.597 6.844-6.5055.081.6019-.095 1.21-.484 1.676-.811 1.4917-1.508 3.043-2.083 4.6406-1.012 2.3828-1.745 4.8747-2.185 7.4258-.031.5005-.199.9828-.484 1.3951-.286.3488-.485.5232-.765-.0678-.383-.8089-.785-.8865-1.076.1211-.068.3439-.339.8041-.731.4021z" fill="#a3a3a3"/><path d="m80.9854 54.2918c.0291 0 .0582.0581.0921.063 3.0529.1908 6.1137.2199 9.1697.0872.3149.0678.775-.1938.9688.247.1453.3246-.1453.6152-.3294.901s-.2373.6443-.402.9349c-.7993 1.4096-1.0415 3.1438-2.1799 4.3596-.2761.2955-.3633.6443-.7459.0485-.4844-.7218-.9688-.3634-1.1917.2809-.2615.7799-.5909.8719-1.0705.281-.3924-.4844-1.0027-.2955-1.0754 0-.2712 1.0317-.6878.2906-.9688.1453-.2809-.1453-.5667-.6055-.8719-.6394-.8138-.0824-1.0657-.6346-1.2013-1.3418-.291-1.1858-.7117-2.336-1.2546-3.4296-.8235-1.8504-.7654-1.9812 1.0608-1.9376z" fill="#a3a3a3"/><path d="m163.9 31.8963c0-.1744.393-.5716.485-.5328.537.247.377.8768.712 1.5355-.664-.2858-1.153-.4456-1.197-1.0027z" fill="#fff"/><path d="m171.927 21.309c.116-.1065.537-.0823.436.2519-.102.3342-.175.7993-.625.8768-.451.0775-.572-.2616-.79-.5619.155-.5087.674-.3052.979-.5668z" fill="#fff"/><path d="m50.962 19.3814c-.0581-.9688.683-1.0027 1.211-1.1577.6443-.1889.6685.3826.8187.9155.1433.5645.1973 1.1481.1598 1.7293-.0832 2.5904.8908 5.1032 2.6982 6.9609.3826.4165.9445.8719.775 1.4532-.1938.6636-.901.1017-1.3079.3148-.4844-.0242-1.0075.1163-1.3321-.1017-1.3-.8017-2.2154-2.1004-2.5334-3.5943-.4457-2.141-.3633-4.345-.4893-6.52z" fill="#f9c2cf"/><path d="m41.8887 22.1762c-.155-1.521.6588-1.5936 1.5259-1.8455.2083-.0582.4359 0 .6442-.0775 1.8892-.5377 2.0975-.3391 1.8504 1.7729 0 .1162-.0436.2276-.0629.3439-.3416 1.4546.0329 2.9848 1.0075 4.1174.5183.6346 1.1093 1.3176 1.211 2.2573-.8186.3246-1.5791-.1211-2.3542-.1114-1.5694 0-2.4946-.9688-3.2697-2.2621-.775-1.2934-.4117-2.7902-.5522-4.195z" fill="#f9c2cf"/><path d="m46.8837 19.8941c.0339-.2616.2906-.4311.5861-.5765.4505-.2228.9252-.0968 1.366-.3197.6782-.3487 1.1045 0 1.1965.7606.1889 1.5403.4069 3.0807.4844 4.6308.0678 1.7342.9301 3.1971 1.148 4.8973-.3539.0773-.7232.0417-1.056-.1017-.4456-.1792-1.1868.1647-1.3272-.3633-.2615-.812-.7327-1.5405-1.366-2.112-1.8844-1.9812-1.3467-4.4323-1.0318-6.8155z" fill="#f9c2cf"/><path d="m137.471 12.3772c.324.1802.726.1396 1.008-.1017 1.012-.8961 5.299-.901 5.764-.9688 1.565-.2228 2.97.4408 4.437.809 2.185.5473 4.205 1.6615 6.491 1.9376 1.328.155 9.737 1.8649 11.888 2.5479 1.274.4021 6.18 1.5307 7.411 1.3757.334-.0436.547.1841.576.5571s-.31.3439-.528.4166c-1.603.5376-3.182 1.1674-4.805 1.5888-3.812.9979-7.658 1.8359-11.466 2.858-1.952.5209-3.951.8455-5.968.9688-.968.0581-1.283.5619-.901 1.5065.21.6049.653 1.1005 1.231 1.3757 2.771 1.3078 5.328 3.0468 8.007 4.5727 1.56.8913 3.032 2.0103 4.776 2.5189.276.0561.461.3171.422.5958-.044.5183-.436.31-.683.3246-2.621.1259-5.246-.218-7.862.2422-2.54.3683-5.03 1.0181-7.426 1.9376-1.608.6684-3.071 1.613-4.641 2.3396-2.586 1.2013-5.328 1.9376-7.532 4.1659-1.603 1.6276-3.575 2.9548-5.411 4.3596-2.189 1.6798-3.893 3.9094-4.941 6.4619-.605 1.4241-.484 3.4393-2.213 4.2288-.189.0824-.257.5329-.335.8284-.169.6684-.281 1.3563-.484 2.0151-.102.3439-.223.7023-.732.6927-.968 0-1.385 1.7147-2.63 1.0172-.102-.0581-.077.3342-.131.4844-.237.746-.436 1.5743-1.308.4844-.14-.1695-.435-.4844-.726-.1889-.581.6103-.678-.0775-.77-.3827-.79-2.514-1.487-5.062-2.33-7.5567-.412-1.211-.242-2.5334-.78-3.7056-.262-.5668-.393-.9252-1.168-.7605-3.038.6216-6.112 1.0567-9.203 1.303-1.143.0969-2.34-.0727-3.415.0969-2.2527.3536-4.4858.1647-6.6947.0581-2.6254-.1259-5.2557-.218-7.8666-.1066-2.9694.126-5.8855-1.0172-8.8646-.2954-.1805.0428-.3704.0169-.5328-.0727-.2443-.1545-.5519-.1688-.8094-.0375-.2575.1312-.4267.3885-.4452.6769-.0485 1.056-.7266 1.7584-1.0076 2.6642-.7193 2.5791-1.7902 5.0469-3.1825 7.3339-.6782-.3149-.528-1.2159-.9688-1.6131-.7654-.6782-1.0366.3245-1.4532.746-.8332-1.2692-1.2207-1.2595-1.9376-.0727-.1163.1986-.1066.6491-.4602.5183-.248-.1016-.4368-.3099-.5135-.5667-.1404-1.1287-.683-1.182-1.521-.8235-.1698.0974-.3778.1004-.5503.0077-.1724-.0926-.2849-.2677-.2974-.463-.2228-1.2498-.6345-2.4463-.775-3.7251-.1565-1.9279-.4185-3.8458-.7848-5.745-.7083-3.2585-1.1041-6.5771-1.1819-9.9108-.0281-2.1094.134-4.217.4844-6.2973.1889-1.2739 1.0705-5.1007.8525-5.7595-.247-.7411-.7944-.6103-1.3321-.5619-1.8746.1695-3.6427.1986-4.8101-1.9376-.8283-1.5065-2.0393-2.7563-2.3009-4.6115-.2519-1.7826.1889-3.4489.5183-5.1444.0436-.2179.1066-.3633.3294-.3778.8381-.0484 1.555-.6249 2.3688-.7024 1.6179-.1501 3.1873-.8331 4.844-.4844.1962.037.3934-.0596.4844-.2373.4844-.8235 1.2594-.7169 2.1216-.6491-.6103.9688.0776 1.3611.5523 1.8698.3536.3778.6055.1356.9446-.0969.9009-.6249.3003-1.4532.2906-2.2186 2.9984-.712 6.0889-.9155 9.0825-1.7099.4531-.186.9678-.1446 1.3854.1114.6104.5086 1.2062.2228 1.8456.2083.7944 0 1.0463-.8429 1.7196-.9688 1.574-.2797 3.175-.3772 4.7714-.2906.2228 0 .4844 0 .4504.3584-.0436.7169.4312.5716.8138.5861.7299.0155 1.4447-.2092 2.0345-.6394 1.3467-.9688 2.8531-.9688 4.3209-.9688 1.3919.0252 2.7842-.0249 4.1707-.1501 2.2428-.2471 4.5005 0 6.7385-.3585.28-.0484.755.0823.658.4553-.261 1.0027.567.7945.892.901.678.2132 1.429-.0678 2.141.2471.416.184.513-.3004.397-.5765-.393-.9446.223-.8913.731-.9058 2.054-.0581 4.113-.0484 6.162-.1405 5.29-.247 10.55.4118 15.83.5183 2.272.0032 4.531.3494 6.699 1.027zm11.786 5.5852c.892-.0337 1.599-.7642 1.603-1.6567 0-.8574-.906-2.1217-1.535-2.1313-.814 0-1.73 1.1286-1.754 2.1943.08.892.824 1.5776 1.72 1.584zm-62.9724-3.7832c-.1695-.5135-.4844-.2809-.7799-.2616-.5086.0242-.9688.0678-1.2304.5377.0824.436.2422.6297.5329.6491.2911.0365.5856.0365.8768 0 .2761-.0484.5376.4844.7605.063.2228-.3197.0048-.6636-.1066-.9979zm23.0184 1.6567c-.17-.0293-.344.0261-.466.1484-.123.1223-.178.2963-.149.4667 0 .436.301.5668.673.5571.456 0 .635-.2761.625-.7847-.009-.5086-.339-.3875-.634-.3924zm2.873-2.1363c-.373.0727-.969.1115-1.027.7799-.024.2132.184.8477.596.591.411-.2567 1.23.1114 1.298-.7605.092-.5328-.286-.6346-.819-.6152zm3.497-.9688c-.116-.9688-.969-.5715-1.54-.683-.31-.0629-.969-.2567-.819.4844.146.8284.848.6346 1.453.6734.31-.1986 1.056.3826.955-.4699zm8.647 5.2703c-.005.1345.057.2627.166.3416s.25.0979.376.0508c.485-.2713 1.26-.2422 1.366-1.0802.039-.3003-.179-.4844-.484-.5377-.436.402-1.23.4166-1.376 1.2304zm10.318-3.6378c-.678-.2875-1.412-.4135-2.146-.3682-.126 0-.228.2519-.335.3779.243.3826.422.7023.848.7314s.848-.1162 1.255.1744c.198.1405.407-.0824.484-.3052.078-.2228.165-.5134-.058-.6055zm-3.391 4.0302c-.204 0-.451-.4505-.586.0484-.097.3585-.039.7557.339.8816.542.1793 1.104.2762 1.7.4166.374-.0148.673-.3143.688-.6878-.021-.3502-.318-.6193-.669-.6055-.44 0-.93-.0146-1.419-.0485zm5.595 4.936c-.034-.4117.121-.9978-.422-1.0511-.542-.0533-.373.5232-.484.8671-.138.4633-.442.8598-.853 1.1141-.121.0678-.45.0484-.266.4553.145.3294.363.4408.581.3294.678-.3536 1.511-.6103 1.444-1.7148zm-1.226 4.752c.199-.0726.155-.4262.097-.6442-.033-.1306-.13-.2354-.258-.2776-.127-.0423-.268-.0161-.372.0693-.712.4844-1.569.6781-2.291 1.3757 1.216.901 1.947-.2083 2.824-.5232zm-3.454-4.9021c.209-.0242.533.0872.814-.2083.278-.2198.401-.5817.315-.9252-.155-.4844-.514-.2519-.809-.1889-.167.056-.337.1029-.509.1404-.45.0485-.823.3197-.789.7702s.523.4118.978.4118zm-1.593 2.8337c.484-.0484 1.138 0 1.152-.683.015-.683-.789-.31-1.128-.6491-.315.2568-.969.0339-.969.6927s.518.6588.949.6152zm-1.144-13.1902c.088.7169.926.4844 1.488.4311h.765c.252 0 .789.1889.76-.4844 0-.591-.363-.7024-.813-.683-.257 0-.514 0-.853 0-.436.1356-1.487-.4941-1.342.7121zm-.968 2.7611c.125.042.263.0305.38-.0317.117-.0623.204-.1699.24-.2977.04-.166.011-.3412-.08-.4855-.092-.1443-.238-.2453-.405-.2799-.463-.068-.933-.0794-1.4-.0339v-.0242c-.436 0-.867-.0242-1.303 0-.276.0329-.476.28-.45.5571 0 .4456.3.3536.533.3633.837-.0541 1.678.0161 2.494.2083zm-1.328 6.2681c.029-.5958-.484-.4844-.876-.5813-.583-.0949-1.177-.0949-1.759 0-.358 0-.407.2229-.402.5329s.131.3923.393.4214c.557.0581 1.109.1502 1.709.2374.378-.0485.916-.0533.945-.6298zm-2.959 5.7741c.736.3536 1.453-.1405 2.184-.2325.218-.0291.107-.3294.121-.3633.117-.6976-.193-.8962-.595-.7266-.467.162-.961.2311-1.454.2034-.348 0-.799-.1017-.91.3827-.112.4844.392.5861.663.7169zm-1.768-14.8857c.363.063.93.1502.968-.4166.025-.4844-.397-.7798-1.007-.7411-.407.3439-1.507-.0872-1.453.7411.009.9931.964.3004 1.501.3973zm-1.565 2.4802c.218-.155.484-.2374.368-.5958-.116-.3585-.315-.5377-.562-.4215-.63.2955-1.279.1744-1.937.218-.204 0-.344.0872-.335.3488.01.2616.136.3197.344.3536.46.0726.911.1647 1.332.2422.277.0245.555-.0327.8-.1647zm-1.909 12.1827c.233-.4166 1.052.1647.969-.7266 0-.3488-.213-.7363-.484-.591-.426.2373-1.182.0339-1.245.8089-.01.499.586.1599.77.4941zm-1.559-5.716c.673.6394 1.482.373 2.218.2083.669-.1501.611-.7314.431-1.3272-.721.1889-1.39.7314-2.17.2518-.094-.0654-.213-.0814-.321-.0429s-.19.1266-.221.2367c-.025.2277-.034.5619.063.6733zm-2.263-3.507 1.027.1986c.46-.1894.96-.2594 1.454-.2035.295 0 .339-.218.334-.4844s0-.3875-.247-.4408c-.872-.2083-1.739.373-2.621 0-.131-.0533-.203.1889-.194.3488.01.1598-.048.5231.267.5813zm-.256 4.5969c0-.2906 0-.6006-.291-.7024-.688-.2518-1.395-.0339-2.088.034-.261.0242-.261.4214-.252.7072.01.2858.233.3439.456.3488.223.0048.586 0 .877 0h.765c.252 0 .547.0145.552-.3876zm-3.498 4.6697c.745.2165 1.523.2986 2.296.2422.485-.063.969-.2616.921-.7654-.029-.5764-.591-.4069-.969-.436h-2.117c-.295 0-.596-.0242-.581.4844.029.3246.169.4021.47.4748zm-3.754-7.3436c.238.0824.485.1744.741.2713.548-.3972 1.177-.2664 1.788-.2955.305 0 .329-.218.334-.4844s-.121-.6733-.373-.5861c-.819.2906-1.686-.126-2.461.2422-.218.1017-.654-.0485-.658.4359-.005.4845.406.3343.649.4166zm-3.391 3.7638c.362.0206.724.0206 1.086 0h1.196c.286 0 .484-.0581.484-.4456 0-.2374 0-.4844-.319-.4844-.858-.0727-1.715-.2035-2.568-.1938-.192-.0065-.377.077-.5.2261-.122.149-.168.3466-.125.5344.073.5765.475.3343.746.3633zm.679-7.6632c.213-.0778.369-.2617.411-.4844-.009-.3116-.251-.5664-.562-.591-.542-.0436-1.089 0-1.637 0h-1.419c-.378 0-.644.1744-.63.6201-.009.1534.049.3033.16.4096.111.1064.264.1585.417.1426 1.094-.0291 2.179-.0339 3.264-.0969zm-3.822 4.844c.393.0863.804.0278 1.157-.1647.209-.1501.63 0 .548-.5134-.018-.1483-.095-.2832-.214-.3742-.118-.0911-.268-.1308-.416-.1102h-1.177c-.421.1986-1.3951-.4312-1.3951.5715.0097.7848.9301.5523 1.5021.5668zm-1.3469-7.6051c-.0339-.4214-.2035-.7072-.591-.6636-.8756.1155-1.7303.3553-2.5383.7121-.092.0387-.1308.2422-.1744.3293.1018.4166.3391.6879.6346.5474.6975-.3294 1.4532-.1308 2.1604-.3972.2955-.1066.5474-.1114.5135-.5522zm-6.5685 11.2478c.0242.1453.1986.2907.4844.3682 1.3079.3536 2.6157.7072 3.9091 1.1044.3488.1066.4844-.0775.5861-.3246.0682-.1229.0796-.2694.0313-.4014-.0484-.1321-.1517-.2366-.2832-.2864-1.4532-.3488-2.8337-1.0754-4.3596-1.0415-.247.0146-.4117.1018-.3681.5813zm-.4554-4.7423c.7749.2387 1.5645.4264 2.3639.5619.281.0533.4069-.2276.4844-.5231.0481-.1646.0223-.342-.0707-.4861-.0929-.1441-.2439-.2407-.4137-.2647-.7266-.1599-1.4532-.2277-2.2234-.3343-.2083.0533-.5328-.1211-.5716.3149-.0304.3171.1536.6158.4505.7314zm-1.2788-4.3596c1.0496.3292 2.1408.507 3.2407.528.1151.0124.2296-.028.3115-.1099s.1223-.1964.1099-.3115c0-.2664.0581-.5474-.3246-.6104-.3826-.0629-.7266-.3875-1.211-.1162-.5473-.1841-1.1867-.0436-1.8019-.31-.2132-.0921-.6927-.2713-.8041.2567-.0533.3827.1937.5716.4989.6878zm-4.0447 9.0438c.4456.683 1.2546.218 1.6518.6152.4505.092.5764-.1017.6636-.3972.0456-.1429.0277-.2986-.0492-.4273-.0769-.1288-.2054-.2184-.3528-.2461-.5024-.037-.9864-.2039-1.4048-.4844-.1303-.0802-.2876-.1038-.4357-.0655-.1481.0384-.2742.1356-.349.269-.2713.3972.1307.5232.2761.7363zm1.3175-5.3769c.1405 0 .5959-.092.4166-.5086-.1065-.2519-.1647-.6103-.5813-.5716-.4165.0388-.9688 0-1.4241 0s-.8768 0-1.3176 0c-.2373 0-.5134-.0726-.5619.3585-.036.1492-.0099.3066.0723.4363.0821.1296.2134.2204.3637.2515.9977.2157 2.0282.2322 3.0323.0485zm-5.6481 2.4705c.5474.1356 1.0899.2955 1.6421.4311.4263.1017.6927-.063.7605-.5571.0679-.4941-.1646-.6297-.5619-.5812-.62.0726-1.1674-.4312-1.8019-.2374-.3536.1259-.9688-.2519-1.0463.1938-.0775.5909.5619.6587 1.0075.7508zm-1.7923-5.0911c-.092-.7363-.6975-.7556-1.211-.8525-.2761.1065-.8041-.1889-.7072.4117.1114.6927.6927.9252 1.274 1.0173.1662.0627.3535.0294.4879-.0868.1345-.1162.1944-.2967.1563-.4703zm-1.0075 7.6487c.292-.1017.5031-.3576.5474-.6636 0-.31-.2277-.4844-.5087-.4844-1.0317-.0388-2.0441-.4844-3.1776-.1453.4553.7895 2.5092 1.6033 3.1389 1.3175zm-9.2036-9.1358c-.2858-.063-.5523-.2761-.9059-.1211s-1.1819-.0339-1.1335.7218c.0485.7556.7993.3826 1.0754.4844.3294 0 .4844-.2325.6539-.0533.3294.3536.6346.4117.8235-.1163.071-.1835.0569-.3891-.0385-.5612-.0954-.1722-.2623-.2931-.4556-.3301zm2.9064 3.1002c.6491.1986 1.2885.4117 1.9376.5909.2519.0679.4165-.1404.4844-.3633.0589-.1257.0649-.2698.0167-.4001-.0483-.1302-.1468-.2356-.2735-.2925-.6394-.2277-1.303-.3876-1.9376-.5716-.247.0484-.557-.1066-.6152.3197-.0048.373.0727.6345.4166.7411zm-3.8074 3.8752c.7363.3488 1.5161.591 2.2815.8719.4021-.0872.8235-.063.8913-.5764.092-.7024-.4844-.373-.7557-.4844-.6528-.1858-1.2856-.4356-1.8891-.746-.1436-.1215-.3328-.1747-.5187-.1459-.1858.0288-.3501.1368-.4501.2961-.2132.4214.2518.7169.465.8186zm-2.422-3.7202c.4571.1979.9588.2698 1.4532.2083.2179-.0969.7169.2858.8331-.2519.1163-.5377-.402-.5668-.7411-.7557-.4688-.2252-1.0009-.2817-1.5065-.1598-.2809.0387-.5135.1598-.528.4844-.0145.3245.281.4069.5329.5086zm-3.3909 1.8649c.4312.0339.4505-.2083.4312-.4505-.0087-.5369-.3825-.9987-.9059-1.1189-.247-.0582-.6684.3536-.5716.6878.1938.5668.809.6346 1.0851.9155zm-4.0641 3.5458c.1572.0213.3148-.0356.422-.1525s.1504-.2788.1157-.4336c-.0436-1.0221-.93-.7363-1.4532-1.0172-.2277-.126-.6975 0-.6346.3536.2035.901 1.1142.8138 1.5889 1.2837zm-1.303-5.5706c.3031.0886.6304.0174.8693-.1892.2388-.2065.3565-.5201.3126-.8329-.1647-.2857-.3245-.838-.7896-.6297-.649.2955-1.8068.0388-1.7826 1.1965.063.8961.9688.4117 1.429.4844z" fill="#a3a3a3"/><path d="m175.279 17.6533c-1.453-.62-3.875-.2955-5.585-.7218-1.604-.3972-3.236-1.056-4.844-1.4532-3.483-.867-7.034-1.8455-10.657-2.6157-6.385-1.3612-18.839-4.25308-15.501 6.9657.581 1.9376 1.594 3.7105 2.252 5.5754.785 2.2137.325 3.3908-.082 5.561-.484 2.5964-.354 9.9932 3.652 9.945.94 0 3.343-2.2043 4.408-2.616 1.522-.591 3.164-1.0367 4.733-1.5647 3.59-1.2158 6.365-1.0802 10.231-.9106 1.69.0726 3.39.7895 5.067.1889-2.907-1.7293-6.521-2.8338-9.253-4.97-2.175-1.7051-6.495-3.8025-7.648-6.2972 1.937-.9688 5.435-.8769 7.648-1.1239 1.885-.2083 3.653-.3051 5.358-1.1479 1.926-.9431 4.212-1.2107 6.297-1.71.693-.1889 6.753-2.2379 3.444-2.6109z" fill="#fff"/><path d="m36.2456 21.6779c.0436-.2955.1647-.4214.4166-.402 1.274.1114 2.5092-.3391 3.7928-.2665.6927.0388.7121.4408.6055.9156-.5764 2.5237-.0823 4.6938 1.7294 6.5975-1.8795-.4844-3.9188.0485-5.6433-1.3854-1.0899-.9107-1.5307-1.4822-1.3273-2.9597.1114-.838.3052-1.6615.4263-2.4995z" fill="#f9c2cf"/><path d="m20.3334 21.2748c.3876-.0291.9688-.0921.9446.4844 0 .9688.8671 1.2061 1.1723 1.9037.155.3633.5716.2809.838.0533.3633-.31-.063-.4457-.1792-.6346-.1988-.3192-.4139-.628-.6443-.9252-.6007-.7702-.2228-.9058.4844-.901 1.5743 0 3.1486.0388 4.7181 0 .7072 0 .993.1841.9155.9688-.1654 1.2551.1401 2.527.8574 3.5701-7.0481-1.6034-13.9798-2.9065-20.74209-5.0524 1.95979.2361 3.93099.3639 5.90489.3827 1.9134-.0387 3.8171.2907 5.7304.1502z" fill="#f9c2cf"/><path d="m29.4153 22.3382c.1115-.683.3294-1.0463.9688-1.056h4.2676c.6007 0 .7605.2374.654.9688-.2471 1.6325-1.0173 3.3182.4262 5.0281-1.5957-.4262-3.2126-.7689-4.844-1.0269-.104-.0086-.1993-.0616-.2615-.1453-.5959-1.2062-1.4581-2.2525-1.2111-3.7687z" fill="#f9c2cf"/><g fill="#000"><path d="m.816711 18.6647h.547359c2.25733-.1308 4.45166.3972 6.67507.6734 2.63026.3245 5.29446.3778 7.94416.4844 2.2961.1114 4.5921.2179 6.8882.2325 4.7568.0339 9.5185.0581 14.2705 0 1.4751.0088 2.9436-.1968 4.3596-.6104 3.9333-1.2594 8.0847-1.4532 11.9357-3.1292 2.5188-1.0851 5.2848-1.1577 7.9054-1.8892 2.2877-.6344 4.6169-1.1087 6.9705-1.4193 2.1314-.2858 4.224-.8186 6.3699-1.0172 1.8673-.1536 3.7241-.4156 5.5609-.7848 2.3494-.4844 4.7278-.4456 7.082-.7508 2.0693-.2201 4.1484-.3349 6.2294-.3439 3.5458-.092 7.1066-.5716 10.6326-.35362 2.117.13079 4.195-.35845 6.297-.03875 1.299.19213 2.621.15113 3.905-.1211 2.562-.54737 5.115-.0436 7.668-.08719 2.552-.0436 5.236.59096 7.905.59096 1.981 0 3.962.2083 5.948.2519.558 0 .916.9204 1.58.3245-.785-1.61785-2.064-2.93058-2.51-4.781-.387-1.60337-.581-3.1583.456-4.52431.803-1.052128 2.132-1.558951 3.432-1.3084537 1.3.2504967 2.346 1.2151337 2.7 2.4903937.601 1.90839 1.001 3.87449 1.192 5.8661-.001.77683.609 1.41696 1.385 1.45321.848.15496 1.022-.43596.78-1.81166-.261-1.51134-.693-3.0372-.169-4.59213.523-1.55493 3.047-2.475295 3.802-1.38539.853 1.22554 1.395 2.59639.848 4.22398-.388 1.15681-.846 2.28914-1.371 3.39082-.247.51834-.291.71694.334.96884 1.62.6708 3.301 1.185 5.019 1.5355 2.94.62 5.88 1.2498 8.811 1.9376 2.383.5619 4.781 1.056 7.159 1.6325 1.938.4844 3.914.5425 5.813 1.1625.634.2024 1.325.1118 1.885-.247.62-.3779 1.937 2.3154 1.249 2.5237-.586.1695-1.07.5668-1.695.6539-1.56.2132-2.814.9107-3.323 2.7079-.162.5062-.452.9618-.843 1.3224-.484.4408-1.056.7653-1.603.0436l-.771-.9931c-.206.336-.433.6595-.678.9688-.765.8526-1.424.9689-2.126.1115-.862-1.0367-1.865-.9688-2.955-.7654-.809.155-1.603.3633-2.422.5668-2.543.6394-5.062 1.4532-7.688 1.6808-.314.0243-.62.0921-.658.4844-.039.3924.271.3876.484.5377 2.054 1.4145 4.277 2.4947 6.394 3.788 1.652 1.0076 1.657.9979 3.076-.2809 1.076-.9688 1.342-.9252 1.836.5522.179.5377.446.7363.867.6249.756-.2035 1.022.2664 1.415.8283.692.9688.896 2.4705 2.296 2.8047.448.1207.884.2829 1.303.4844.363.1647.968.2083.702.8816-.208.5377-4.67.3149-6.409.3052-.968 0-4.161-.1066-4.761-.0436-1.608.1744-8.608 1.3127-10.279 2.1604-3.033 1.5404-6.365 2.3494-9.054 4.8101-1.332 1.2207-2.698 2.2428-3.676 3.8752-1.773 3.0996-3.206 6.382-4.273 9.7898-.535 1.685-.908 3.4174-1.114 5.1734-.208 1.5889-.024 3.1486-.106 4.7181-.035.9239.147 1.843.532 2.6836.766 1.7051 2.078 2.6739 3.532 3.5361.416.2471.944.5571.518 1.2401-.368.5909-.853.8089-1.453.3439-.218-.1744-.436-.3585-.674-.1453-.237.2131.03.4456.122.6006.377.6249.121 1.1045-.252 1.5695s-.771.0388-1.144-.0678-.678-.5377-1.007.0726c-.567 1.0657-1.056.4844-1.652-.0532-.596-.5377-.625-1.5162-1.453-1.9376.257 1.0511-.484 1.1286-1.042 1.3417-.314.126-.799.189-.649.5813.485 1.1917-.067 1.4048-.968 1.3467-.301 0-.485.1937-.645.3875-.126.1868-.328.3086-.552.3329-.224.0242-.447-.0515-.61-.207-.451-.3342-.819-.5958-1.197.218-.247.5329-.828.1599-.944-.2228-.359-1.2255-1.187-2.1072-1.841-3.1099-1.453-2.2524-1.981-4.9506-2.906-7.4404-.8-2.1313-1.255-4.4129-1.938-6.5927-.775-2.422-1.681-4.7568-2.025-7.2951-.087-.6636-.421-.746-.911-.6927-2.761.2955-5.488.8187-8.268.9688-1.531.0921-6.8933.5377-8.0317.2568-2.5285-.6201-4.0302-.126-5.0377 1.7826-.3343.6345-.5377 1.3466-.838 2.0005-1.4991 3.0703-2.1783 6.4762-1.9716 9.8867.1018 1.3611 1.1335 3.3424 2.611 3.3036.4844 0 .6055.3633.6345.6346.0485.4262-1.7487.8089-2.2476.1356-.218 1.9715-.218 1.9715-1.6663 1.2498-.2713-.1357-.4844-.2471-.654.2422-.2179.6878-1.1286.8719-1.4193.2325-.2906-.6394-.7944-.8187-1.2158-1.182-1.5162-1.3175-1.9861-3.2987-2.5625-5.1007-1.3854-4.3596-2.2815-8.9082-4.4177-12.9723-.1211-.2277-.0582-.5232-.4312-.528-.3729-.0048-.4311.1356-.5619.4166-.3197.6927-.7169 1.3418-1.0269 2.0345-1.6421 3.7541-2.8386 7.6971-4.0787 11.6256-.2858 1.0169-.3908 2.0761-.31 3.1293 0 .5231 2.2622 1.3078 3.1147 1.085.5086-.1356.6491.654.5668.7315-1.9958.8477-1.4532 1.395-1.0899 2.6448-1.0221-.1938-2.3542 0-1.9909 1.2982-.3566.1545-.7727.0419-1.0027-.2713-.0969-.1211-4.8925-2.2525-5.1638-3.6621-.1402-.5539-.3133-1.099-.5183-1.6324-.4844-1.5695-1.3321-2.9984-1.6179-4.6454-.3584-2.049-.6588-4.1077-1.0947-6.1374-.6443-3.0178-.9107-6.1083-1.521-9.1261-.5858-3.0824-.942-6.2041-1.0657-9.3393-.0406-1.5278.0144-3.0566.1647-4.5776.1792-2.3978.683-4.7374.8283-7.266-.993 0-5.5076 0-6.7477.0533-2.9888.1356-5.9097-.8913-8.9082-.8186-1.7196.0435-5.0426-.4845-6.4473-.6685-.3197-.0436-.6249-.155-.9446-.2277-3.1486-.7121-6.3311-1.2885-9.4362-2.175-2.243-.6271-4.5161-1.1412-6.8106-1.5404-3.5313-.6297-6.927-1.8407-10.4728-2.3735-1.85527-.2761-3.58943-1.3128-5.46407-1.5792-1.87463-.2664-3.47801-1.3563-5.328411-1.7196-.237366-.0484-.755677 0-.6200412-.5813.1210942-.3923.4456632-.4311.7944332-.4166zm170.921289 3.7784c.45-.0775.528-.5474.625-.8768s-.32-.3585-.436-.2519c-.296.2664-.824.0581-.969.5668.208.2954.378.6297.78.557zm-7.382 8.8984c-.083-.0387-.485.3633-.485.5329.044.5813.533.7411 1.187 1.0027-.305-.6588-.145-1.2885-.702-1.5356zm-34.228 30.7208c.281.591.484.4166.765.0678.285-.4123.453-.8946.484-1.3951.44-2.5512 1.173-5.043 2.185-7.4258.576-1.5976 1.272-3.1489 2.083-4.6406.389-.466.565-1.0742.484-1.676-2.601 1.9133-5.25 3.57-6.844 6.5055-1.613 2.8236-2.593 5.9639-2.873 9.2036.679-.7169 1.231-.8138 1.909-.1163.392.4021.664-.0581.765-.4262.272-.9785.678-.901 1.061-.0921zm-3.977 10.7925c.126.7895.484 1.4968 1.511 1.2933.436-.0872.94.1986 1.608.3682l-3.39-5.0475c-.189 1.2546.121 2.3251.29 3.386zm-46.2751-16.6538c.5429 1.0937.9636 2.2438 1.2546 3.4296.1356.7072.3875 1.2594 1.2013 1.3418.3052.0339.5522.4844.8719.6394s.7218.8865.9688-.1453c.0727-.2761.683-.4844 1.0754 0 .4844.5909.809.4844 1.0705-.281.218-.6394.7315-1.0027 1.1917-.2809.3826.5958.4844.247.7459-.0485 1.1384-1.2207 1.3806-2.9548 2.1798-4.3596.1647-.2906.2229-.6539.4021-.9349.1792-.2809.4844-.5764.3294-.901-.1986-.4359-.654-.1792-.9688-.247-3.056.1327-6.1168.1036-9.1697-.0872-.0339 0-.063-.063-.0921-.063-1.7777-.0145-1.8358.1163-1.0414 1.9376zm-18.6107-26.894c.5377-.0484 1.085-.1743 1.3321.5619.218.6588-.6636 4.4856-.8526 5.7596-.3504 2.0802-.5125 4.1878-.4844 6.2972.0778 3.3337.4736 6.6524 1.182 9.9109.374 1.8956.6441 3.8102.8089 5.7353.1405 1.2788.5522 2.4753.7751 3.725.0125.1954.1249.3705.2974.4631.1724.0926.3805.0897.5503-.0077.838-.3585 1.3805-.3052 1.521.8235.0767.2568.2654.4651.5135.5667.3536.1308.3439-.3245.4601-.5183.6976-1.1868 1.0803-1.1965 1.9377.0727.4068-.4215.6781-1.4242 1.4532-.746.4504.3972.3003 1.2982.9688 1.613 1.3923-2.287 2.4632-4.7547 3.1825-7.3338.2809-.9058.9688-1.6082 1.0075-2.6642.0185-.2884.1878-.5457.4453-.677.2575-.1312.5651-.1169.8093.0376.1624.0896.3524.1155.5329.0726 2.9742-.7217 5.8903.4215 8.8645.2955 2.6109-.1114 5.2412 0 7.8667.1066 2.204.1066 4.442.2955 6.694-.0581 1.076-.1696 2.272 0 3.415-.0969 3.092-.2463 6.166-.6815 9.204-1.3031.775-.1647.911.1938 1.168.7605.537 1.1723.368 2.4947.779 3.7057.843 2.4947 1.541 5.0427 2.33 7.5567.097.3052.189.9688.771.3827.285-.3004.581 0 .726.1889.872 1.0657 1.071.2422 1.308-.4844.053-.1744.024-.5668.131-.4844 1.245.6927 1.661-1.0366 2.63-1.0173.485 0 .63-.3439.732-.6927.193-.6587.305-1.3466.484-2.0151.077-.2955.145-.7459.334-.8283 1.749-.7896 1.613-2.8047 2.214-4.2288 1.047-2.5525 2.752-4.7821 4.941-6.4619 1.836-1.4145 3.807-2.7466 5.411-4.3597 2.213-2.2427 4.945-2.9645 7.532-4.1658 1.57-.7266 3.032-1.6712 4.641-2.3397 2.395-.9194 4.886-1.5693 7.425-1.9376 2.616-.4553 5.242-.1162 7.862-.2422.243 0 .635.1986.683-.3245.039-.2788-.145-.5397-.421-.5958-1.744-.4844-3.217-1.6325-4.776-2.5189-2.669-1.5259-5.237-3.2649-8.007-4.5728-.578-.2751-1.022-.7708-1.231-1.3757-.383-.9446-.048-1.4532.901-1.5065 2.017-.1233 4.016-.4478 5.968-.9688 3.803-1.0221 7.654-1.8601 11.466-2.858 1.627-.4262 3.207-1.0511 4.805-1.5888.223-.0727.557 0 .528-.4166s-.242-.6006-.576-.557c-1.231.1598-6.138-.9688-7.412-1.3757-2.15-.6782-10.56-2.393-11.887-2.548-2.286-.2664-4.306-1.3805-6.491-1.9376-1.453-.3681-2.872-1.0318-4.437-.809-.484.0679-4.752.0727-5.764.9688-.282.2413-.684.2819-1.008.1018-2.169-.6776-4.427-1.0238-6.699-1.027-5.28-.1065-10.541-.7653-15.831-.5183-2.053.0969-4.107.0872-6.161.1405-.514 0-1.124-.0387-.732.9058.117.281 0 .7606-.397.5765-.717-.31-1.453-.0339-2.141-.2471-.324-.1017-1.153.1066-.891-.901.097-.3729-.378-.4844-.659-.4553-2.233.373-4.4952.1114-6.7379.3585-1.3865.1252-2.7788.1753-4.1707.1501-1.4532 0-2.9743 0-4.3209.9688-.5898.4303-1.3046.6549-2.0345.6394-.3827 0-.8525.1308-.8138-.5861 0-.3391-.2276-.3536-.4505-.3584-1.5985-.0822-3.2011.0202-4.7762.3051-.6733.1454-.9252.9688-1.7196.9688-.6394 0-1.2352.3004-1.8456-.2083-.4279-.2642-.9581-.3022-1.4193-.1017-2.9936.7944-6.084.993-9.0825 1.71 0 .7847.6055 1.5936-.2906 2.2185-.3391.2325-.591.4844-.9446.0969-.4844-.4844-1.1626-.9252-.5522-1.8698-.8671-.0678-1.6131-.1744-2.1217.6491-.091.1777-.2882.2743-.4844.2374-1.6615-.3294-3.231.3536-4.844.4844-.809.0775-1.5307.6491-2.3688.7023-.2228 0-.2857.1551-.3294.3779-.3293 1.6954-.7701 3.3617-.5183 5.1443.2616 1.8601 1.4532 3.105 2.3009 4.6115 1.1675 2.1362 2.9355 2.1072 4.8102 1.9376zm-7.3048.1793c.3294.2131.8574.0726 1.3321.1017.4069-.2131 1.1141.3536 1.3079-.3149.1647-.5716-.3924-1.0221-.7751-1.4532-1.805-1.8604-2.7755-4.375-2.6884-6.9657.0375-.5812-.0165-1.1648-.1598-1.7293-.1502-.5328-.1744-1.1044-.8187-.9155-.528.155-1.2643.2034-1.211 1.1577.126 2.175.0678 4.3596.4844 6.5104.3191 1.4973 1.2383 2.7982 2.5431 3.5991zm-3.3908-.3004c.3327.1434.702.179 1.056.1018-.218-1.7003-1.0851-3.1632-1.148-4.8973-.063-1.5501-.281-3.0905-.4845-4.6309-.092-.746-.5183-1.1093-1.1964-.7605-.4408.2276-.9156.0968-1.366.3197-.2955.1453-.5523.3148-.5862.5764-.3148 2.3833-.8525 4.844 1.0173 6.8204.6333.5714 1.1046 1.3 1.366 2.112.1841.528.9252.1647 1.3709.3584zm-4.8925-.557c.7751 0 1.5356.4408 2.3542.1114-.1017-.9397-.6927-1.6228-1.211-2.2573-.9746-1.1326-1.349-2.6628-1.0075-4.1174 0-.1163.0532-.2277.0629-.344.2471-2.112.0388-2.3106-1.8504-1.7729-.2083.0582-.4359 0-.6442.0775-.8671.2519-1.6809.3197-1.5259 1.8456.1453 1.4096-.2422 2.8677.5474 4.1949.7896 1.3273 1.7341 2.2767 3.3036 2.267zm-8.5593-1.4968c1.7196 1.4532 3.7638.8816 5.6432 1.3854-1.8116-1.9037-2.3057-4.0739-1.7293-6.5976.1066-.4844.0872-.8768-.6055-.9155-1.2788-.0727-2.5189.3778-3.7928.2664-.2519 0-.373.1066-.4166.4021-.1211.838-.3149 1.6615-.4311 2.4995-.1696 1.4823.2664 2.0538 1.3611 2.9645zm-6.2973-.9059c1.6315.258 3.2483.6008 4.8441 1.027-1.4533-1.7051-.6734-3.3908-.4263-5.0281.1065-.7218-.0533-.9688-.654-.9688-1.4241 0-2.8434 0-4.2675 0-.6152 0-.8332.373-.9688 1.056-.2471 1.5162.62 2.5625 1.1722 3.7493.0697.1108.1937.1756.3246.1695zm-1.4193-.4311c-.7173-1.0431-1.0227-2.3149-.8573-3.57.0823-.7944-.2083-1.0027-.9156-.9688-1.5743.0533-3.1486.0242-4.7181 0-.6926 0-1.0705.1308-.4843.901.2304.2972.4454.606.6442.9252.1163.1889.5425.3245.1792.6345-.2664.2277-.683.3101-.838-.0532-.3051-.6976-1.1771-.9398-1.1722-1.9037 0-.5862-.5522-.5232-.9446-.4844-1.9376.1404-3.8171-.189-5.7402-.1454-1.9738-.0188-3.9451-.1466-5.90482-.3826 6.79612 2.1265 13.72792 3.4489 20.77602 5.0523z"/><path d="m164.041 5.4646c.324 0 .387.4844.484.79926.213.85255.484 1.69541.683 2.54795.199.85255.426 1.77289.601 2.68359.057.1654.035.3479-.059.4953-.095.1473-.252.2433-.426.2604-.134.0221-.272-.0136-.379-.0985s-.173-.2109-.183-.3472c-.387-1.802-.755-3.60878-1.119-5.35747-.004-.4408-.087-.96395.398-.98333z"/><path d="m163.61 12.2472c-.301.0726-.485-.1211-.62-.3682-.323-.6458-.646-1.2917-.969-1.93756-.422-.88646-.858-1.76807-1.226-2.68359-.097-.2422-.169-.683.126-.86223.296-.17923.426.2422.635.40205.455.35361.528.91552.77 1.3757.576 1.09475 1.061 2.23793 1.545 3.28913-.082.339.121.6927-.261.7847z"/><path d="m46.8348 13.2383c.1371-.0642.2963-.0605.4304.0098.134.0704.2275.1993.2526.3486.2677.6622.5717 1.309.9107 1.9376.0819.1087.1078.2498.0696.3805s-.1358.2357-.2634.2832c-.2228.1259-.6491.1792-.6927-.0436-.155-.8235-.8332-1.3515-.9688-2.1411.0726-.2664-.1744-.6733.2616-.775z"/><path d="m46.0113 31.8989c.3963-.1624.8024-.2999 1.2159-.4117.3706-.0944.75.1188.8622.4844.1599.5134-.2131.7072-.5522.8283-.393.1182-.7925.2136-1.1965.2858-.4117.0339-.7508 0-.8428-.4457-.0921-.4456.1501-.62.5134-.7411z"/><path d="m40.2082 13.9445c.2713.7847.5958 1.5501.8235 2.3542.0485.1695-.1744.4844-.3488.6491-.1743.1647-.3584-.1017-.4262-.2616-.3343-.7944-.6443-1.6034-.9252-2.3203-.0458-.2669.0988-.5301.3487-.6345.1841-.0727.4166-.0969.528.2131z"/><path d="m30.1277 15.038c.4844.7557.9688 1.5162 1.4532 2.2912.1163.1938.1502.4844-.1211.5861-.1889.063-.5377.0533-.6103-.0678-.4844-.7895-.9204-1.6227-1.4048-2.4946.0678-.121.1455-.236.2325-.344.0551-.072.1425-.1118.233-.106.0906.0058.1722.0565.2175.1351z"/><path d="m45.0374 13.7143c.2228.5958.683 1.056.7363 1.7632 0 .2712.155.4844-.092.6975-.3294.2761-.6782-.0581-.7412-.1986-.2951-.6757-.5555-1.366-.7799-2.0684.0969-.1889.1696-.5377.3537-.6297.2664-.1308.4262.1647.5231.436z"/><path d="m28.1661 28.151c.1517-.0209.3051.0245.421.1246.1159.1002.1831.2454.1845.3985.0387.2858-1.3999 1.4775-1.7826 1.4871-.3827.0097-.3827-.247-.3972-.5328-.0339-.6346.8428-1.4484 1.5743-1.4774z"/><path d="m37.2148 29.802c.1505.002.2915.0737.3817.1942.0901.1206.1191.2761.0785.421-.1668.7055-.6876 1.2739-1.3757 1.5017-.2664.0678-.5232 0-.4844-.4166.0097-.7411.8138-1.7051 1.3999-1.7003z"/><path d="m21.782 15.6294c.7024.3379 1.2865.8798 1.6761 1.5549.1162.2373.2276.7217-.2422.7605-.2665 0-1.8795-1.6034-1.8989-1.8117-.0339-.3778.1405-.7024.465-.5037z"/><path d="m26.674 15.666c.4595.4344.8528.9338 1.1674 1.4822.1045.1467.119.3392.0376.4999-.0813.1606-.245.2629-.4251.2655-.2858.0484-1.5307-1.5356-1.5016-1.9085.1259-.3391.4359-.6055.7217-.3391z"/><path d="m32.2545 29.0698c.281.0921.7702-.1356.6637.373-.1184.6365-.6007 1.1434-1.2304 1.2934-.373.092-.4844-.1357-.4844-.528-.0581-.8913.5619-.9349 1.0511-1.1384z"/><path d="m35.9892 16.9793c.0072.0756-.023.1501-.0809.1993-.0579.0493-.1362.0671-.2098.0477-.7266-.1211-1.1141-.6055-1.2643-1.5695-.1259-.3003.3004-.3051.528-.4262.1647-.0775 1.0609 1.4822 1.027 1.7487z"/><path d="m16.9331 18.6451c-.2083-.2374-.8525-.1163-.8913-.8865-.0342-.186.0227-.3771.153-.5141s.3183-.2034.5058-.1786c.5522.1356.683.8235.9688 1.274.1114.1501-.2858.3391-.7363.3052z"/><path d="m21.5486 26.5698c.2131-.1259.5813.3197.591.5619.0015.5035-.274.967-.7169 1.2062-.2568.1405-.4844-.1405-.6443-.31.0192-.5785.3031-1.1161.7702-1.4581z"/><path d="m149.339 14.1659c.63 0 1.536 1.274 1.536 2.1314-.005.8925-.712 1.6229-1.604 1.6566-.888-.0216-1.616-.7087-1.69-1.5937.043-1.0656.959-2.2088 1.758-2.1943z"/><path d="m93.5263 24.1145c1.5356-.0387 2.9064.6927 4.3596 1.0415.1315.0498.2348.1543.2831.2863.0484.1321.037.2786-.0312.4015-.0969.2471-.2374.4311-.5861.3246-1.2982-.3972-2.6061-.7508-3.9091-1.1045-.281-.0775-.4505-.2228-.4844-.3681-.0533-.4844.1114-.5716.3681-.5813z"/><path d="m101.054 15.7357c0-.4456.247-.62.629-.62h1.42c.547 0 1.095-.0291 1.637 0 .311.0246.553.2794.562.591-.043.2226-.199.4066-.412.4844-1.085.0629-2.17.0678-3.255.0872-.152.0171-.304-.0331-.416-.1374-.111-.1044-.172-.2524-.165-.4052z"/><path d="m91.7632 14.6768c.6152.2665 1.2546.126 1.802.3101.4844-.2713.8283.0532 1.211.1162s.3149.3439.3246.6104c.0126.116-.0284.2315-.1114.3136s-.199.1218-.3149.1078c-1.0998-.021-2.191-.1988-3.2407-.528-.3051-.1163-.5522-.3052-.4844-.6733.1163-.528.5959-.3536.8138-.2568z"/><path d="m85.2233 18.5522c.0436-.4311.3245-.3536.5619-.3585h1.3176c.4408 0 .9688.0339 1.4241 0s.4844.3246.5813.5716c.1792.4166-.281.4844-.4166.5087-1.001.191-2.0298.1828-3.0275-.0243-.1534-.0298-.2876-.1215-.371-.2535-.0835-.1321-.1087-.2927-.0698-.444z"/><path d="m111.498 26.4822h2.117c.377.029.944-.1405.968.4359.025.4844-.426.7024-.92.7654-.774.0564-1.551-.0257-2.296-.2422-.3-.0679-.441-.1454-.451-.4844-.009-.499.286-.4747.582-.4747z"/><path d="m70.6914 21.2412c.6036.3104 1.2364.5602 1.8892.746.2858.1065.8428-.2228.7556.4844-.0629.5134-.4844.4844-.8913.5764-.7653-.2809-1.5452-.5231-2.2815-.8719-.218-.1017-.6781-.3972-.4166-.7799.0996-.1523.2586-.2559.4382-.2853.1796-.0295.3634.0178.5064.1303z"/><path d="m80.2777 23.1793c.2809 0 .528.1598.5086.4844-.0443.306-.2553.5619-.5474.6636-.6297.2858-2.6835-.5232-3.1389-1.2788 1.1335-.3536 2.1459.0872 3.1777.1308z"/><path d="m92.8336 18.8984c.746.1066 1.4919.1744 2.2234.3343.1698.024.3207.1206.4137.2647s.1188.3215.0707.4861c-.063.2955-.1841.5764-.4844.5232-.7994-.1356-1.589-.3233-2.3639-.562-.2969-.1155-.4809-.4143-.4505-.7314.0581-.4311.3827-.2567.591-.3149z"/><path d="m104.077 22.7385c.857 0 1.71.1259 2.567.1938.305 0 .301.2567.32.4844.029.3923-.189.4505-.484.4456h-1.197c-.361.0206-.724.0206-1.085 0-.276-.029-.678.2132-.756-.3681-.042-.1889.006-.3868.13-.5351.125-.1483.312-.2299.505-.2206z"/><path d="m96.4131 13.8198c.0436-.0872.0775-.2906.1744-.3294.8082-.3655 1.6646-.6135 2.5431-.7363.3875-.0436.5571.2422.591.6637.0339.4214-.218.4456-.5087.5522-.7023.2664-1.4532.063-2.1604.3972-.2955.1405-.5135-.1308-.6394-.5474z"/><path d="m130.772 12.0362h.853c.45 0 .789.0921.813.683.025.683-.44.4844-.76.4844s-.509 0-.765 0c-.562.0485-1.4.2858-1.488-.4311-.14-1.1819.911-.5522 1.347-.7363z"/><path d="m125.429 14.9777c-.025-.2771.174-.5242.451-.5571.431-.0339.867 0 1.303 0v.0387c.466-.0454.936-.0341 1.4.0339.167.0346.313.1356.404.28.092.1443.12.3195.08.4854-.036.1278-.122.2355-.239.2977-.118.0623-.255.0737-.381.0317-.818-.1959-1.66-.2693-2.5-.218-.218-.0339-.532.0581-.518-.3923z"/><path d="m100.967 19.8508h1.177c.148-.0206.298.0191.416.1102.119.0911.196.2259.214.3742.082.4844-.339.3584-.548.5134-.353.1926-.764.251-1.157.1647-.572 0-1.4923.2277-1.4972-.6006-.0048-.9931.9732-.3682 1.3952-.5619z"/><path d="m59.3855 16.6216c.4844-.2083.6249.3439.7896.6297.0439.3127-.0738.6263-.3126.8329-.2389.2065-.5662.2778-.8693.1892-.4844-.0775-1.3709.4117-1.3903-.4554-.0242-1.1528 1.1529-.8961 1.7826-1.1964z"/><path d="m107.641 19.2649c.78-.3682 1.642.0484 2.461-.2422.252-.0921.383.2761.373.5861s-.029.4602-.334.4844c-.61.0291-1.235-.1017-1.788.2955-.271-.1017-.484-.1938-.741-.2713-.256-.0775-.644.1308-.634-.3972.009-.528.445-.3488.663-.4553z"/><path d="m83.0778 20.8003c.6345-.1938 1.1819.31 1.8019.2373.3972-.0484.6249.0969.5619.5813-.0629.4844-.3342.6637-.7605.5571-.5474-.1356-1.0899-.2955-1.6421-.4311-.4457-.1114-1.0851-.1793-1.0076-.7509.0582-.4505.6927-.0726 1.0464-.1937z"/><path d="m124.407 26.4841c.493.0276.987-.0415 1.453-.2035.407-.1695.712.0339.596.7266 0 .0388.097.3391-.121.3633-.731.0921-1.453.5862-2.185.2325-.271-.1308-.804-.2083-.683-.7411.122-.5328.591-.373.94-.3778z"/><path d="m124.494 22.2105c-.261-.0242-.387-.1259-.392-.4214s.044-.5232.402-.5328c.582-.095 1.176-.095 1.758 0 .378.1065.906 0 .877.5812-.029.5813-.557.5813-.935.6298-.6-.0921-1.153-.189-1.71-.2568z"/><path d="m117.853 20.8195c.78.4844 1.453-.063 2.17-.2519.179.5958.237 1.182-.431 1.3273-.741.1647-1.545.4311-2.219-.2083-.116-.1114-.111-.4553-.063-.6685.03-.1109.112-.2003.22-.2398s.229-.0241.323.0412z"/><path d="m134.807 24.7109c-.184-.4117.145-.3875.266-.4553.411-.2543.715-.6508.853-1.1141.126-.344 0-.9156.484-.8671.485.0484.388.6394.422 1.0511.067 1.1093-.766 1.3612-1.454 1.7148-.208.1163-.426 0-.571-.3294z"/><path d="m74.2133 17.2358c.6345.1841 1.2982.344 1.9376.5716.1266.057.2251.1624.2734.2926s.0422.2744-.0167.4001c-.0775.2277-.2422.4311-.4844.3633-.6539-.1792-1.2933-.3923-1.9376-.5909-.3439-.1066-.4214-.3682-.373-.717.0436-.4262.3536-.2712.6007-.3197z"/><path d="m70.7496 16.2282c-.1695-.1793-.3245.0678-.6539.0533-.2761-.1211-1.0269.3148-1.0754-.4844-.0484-.7993.7073-.5329 1.1335-.7218.4263-.1889.6201.0533.9059.1211.2106.0265.3958.1521.4983.3379.1025.1859.1099.4096.02.6018-.1938.499-.4941.4457-.8284.0921z"/><path d="m133.441 19.0599c-.015.3735-.315.6729-.688.6878-.596-.1405-1.158-.2374-1.7-.4166-.383-.1259-.436-.5231-.339-.8816.135-.4844.382-.063.586-.0484.484.0339.968.0484 1.453.0533.172-.012.341.0453.47.1591.129.1137.208.2745.218.4464z"/><path d="m113.571 23.1778c-.291 0-.586 0-.877 0s-.441 0-.455-.3488c-.015-.3488 0-.6782.252-.7072.692-.0678 1.4-.2858 2.087-.0339.277.1017.291.4117.291.7024 0 .4262-.281.3778-.533.3875s-.508 0-.765 0z"/><path d="m87.8832 23.6639c.4183.2805.9024.4474 1.4047.4844.1475.0276.276.1172.3529.246s.0948.2844.0492.4273c-.0872.2955-.218.4844-.6685.3972-.3972-.3972-1.2061.0679-1.6518-.6151-.1502-.2277-.5474-.3537-.2713-.7654.0798-.1286.208-.2196.3557-.2524s.3024-.0047.4291.078z"/><path d="m115.073 17.284c.881.3537 1.748-.2276 2.62 0 .228.0533.243.2422.247.4409.005.1986-.038.4844-.334.4844-.494-.0559-.994.0141-1.453.2034l-1.027-.1986c-.315-.0581-.237-.3294-.247-.5474s.068-.4359.194-.3827z"/><path d="m135.708 27.4365c.058.218.102.5716-.097.6442-.872.3149-1.603 1.4193-2.824.5184.722-.6976 1.579-.8962 2.292-1.3757.104-.0854.245-.111.373-.0677s.225.1494.256.2808z"/><path d="m67.7851 17.4784c.5056-.1219 1.0377-.0654 1.5065.1598.3391.1889.8719.1647.7411.7557-.1308.5909-.6152.155-.8332.2519-.4943.0615-.996-.0104-1.4532-.2083-.2519-.1018-.5086-.1841-.4844-.4844.0242-.3004.2422-.436.5232-.4747z"/><path d="m120.885 12.3044c-.029-.8283 1.071-.3924 1.454-.7411.61-.0388 1.036.2518 1.007.7411-.029.5667-.6.4844-.969.4166-.503-.0969-1.458.5958-1.492-.4166z"/><path d="m114.811 13.2217c-.596-.0388-1.298.155-1.453-.6734-.136-.7508.508-.557.818-.4844.553.1114 1.425-.31 1.541.683.106.8429-.64.2616-.906.4748z"/><path d="m134.323 15.2885c-.412-.2906-.838-.1404-1.255-.1743-.416-.0339-.605-.3488-.847-.7315.106-.1259.208-.3584.334-.3778.734-.0454 1.469.0806 2.146.3681.223.0727.208.3875.121.6152s-.32.4408-.499.3003z"/><path d="m85.7322 15.1006c-.2911.0365-.5856.0365-.8767 0-.2907 0-.4505-.2131-.5329-.6491.2519-.4844.7218-.5086 1.2304-.5377.3052 0 .6055-.2519.7799.2616.1114.3342.3294.6733.1598.993-.2179.4118-.4844-.1162-.7605-.0678z"/><path d="m118.745 15.1096c-.204-.0339-.335-.1114-.344-.3536-.01-.2422.13-.3342.334-.3487.639-.0436 1.288.0775 1.938-.218.251-.1163.484.1308.561.4214.078.2907-.155.4408-.368.5958-.239.1224-.507.1744-.775.1502-.436-.0824-.891-.1744-1.346-.2471z"/><path d="m131.189 22.748c-.034-.4505.339-.7218.789-.7702.172-.0376.342-.0845.509-.1405.295-.063.654-.3052.809.1889.086.3435-.037.7055-.315.9252-.281.2955-.606.1841-.814.2083-.46.0194-.944.0775-.978-.4117z"/><path d="m59.3954 22.2437c.4844.2809 1.3951 0 1.4532 1.0172.0347.1547-.0085.3167-.1157.4336-.1072.1168-.2648.1738-.422.1525-.4844-.4844-1.3854-.3826-1.5356-1.2497-.0775-.3875.3924-.4844.6201-.3536z"/><path d="m130.598 24.6562c.339.3391 1.148-.0823 1.128.6491-.019.7315-.692.6346-1.153.6831-.46.0484-.968 0-.968-.6395 0-.6394.678-.4359.993-.6927z"/><path d="m79.3283 16.2135c-.0968-.6007.436-.3003.7073-.4117.5134.0968 1.1141.1114 1.211.8525.0449.1757-.0122.3618-.1479.4822s-.3272.1549-.4964.0894c-.5813-.0872-1.1625-.3197-1.274-1.0124z"/><path d="m111.793 15.0603c-.407.2567-.62-.3778-.595-.591.082-.6684.653-.7072 1.026-.7798.533 0 .911.0871.868.6103-.083.8768-.868.4941-1.299.7605z"/><path d="m126.272 17.3226c-.102.8332-.857.8041-1.366 1.0802-.126.0471-.267.0281-.376-.0508s-.172-.2071-.166-.3416c.145-.8137.939-.8331 1.453-1.2255.271.0533.494.2374.455.5377z"/><path d="m119.442 26.0856c.266-.1454.455.2422.484.5909.063.8913-.751.31-.969.7266-.184-.3197-.779 0-.741-.4844.044-.8331.8-.6152 1.226-.8331z"/><path d="m63.8902 18.7289c.5234.1202.8972.582.9058 1.1189 0 .2422 0 .4844-.4311.4505-.2906-.2809-.8913-.3487-1.0415-.8864-.1017-.3294.3149-.7363.5668-.683z"/><path d="m109.415 17.0033c-.369 0-.65-.1259-.674-.5571-.029-.1704.026-.3444.149-.4667.122-.1223.296-.1777.466-.1484.291 0 .698-.1502.683.3875-.014.5377-.174.775-.624.7847z"/></g></svg>