<svg fill="none" height="16" viewBox="0 0 16 16" width="16" xmlns="http://www.w3.org/2000/svg"><path clip-rule="evenodd" d="m13 6.5c0 1.43389-.4643 2.75933-1.2507 3.8342l4.0477 4.0486-1.4142 1.4142-4.0486-4.0477c-1.07487.7864-2.40031 1.2507-3.8342 1.2507-3.58985 0-6.5-2.9101-6.5-6.5 0-3.58985 2.91015-6.5 6.5-6.5 3.5899 0 6.5 2.91015 6.5 6.5zm-6.5 4.5c2.48528 0 4.5-2.01472 4.5-4.5s-2.01472-4.5-4.5-4.5-4.5 2.01472-4.5 4.5 2.01472 4.5 4.5 4.5z" fill="#000" fill-opacity=".15" fill-rule="evenodd"/></svg>