<svg fill="none" height="12" viewBox="0 0 18 12" width="18" xmlns="http://www.w3.org/2000/svg"><path clip-rule="evenodd" d="m16.0229.35229c.7772.198148 1.3828.78158 1.5885 1.51913.3772 1.343.3886 4.12808.3886 4.12808s0 2.79609-.3771 4.1281c-.2057.7375-.9257 1.343-1.7028 1.5411-1.4057.3523-6.92541.3303-6.92541.3303s-5.51975.033-6.9254-.3303c-.76568-.1981-1.519932-.8036-1.725637-1.5411-.3771257-1.34302-.34284154-4.1281-.34284154-4.1281s-.03428416-2.78508.34284154-4.12808c.205705-.73755.948527-1.342998 1.725637-1.541146 1.40565-.3522627 6.9254-.33024633 6.9254-.33024633s5.62261 0 7.02821.35226233zm-4.2626 5.64739-4.49126 2.66398v-5.32797z" fill="#e68f52" fill-rule="evenodd"/></svg>