<svg fill="none" height="14" viewBox="0 0 12 14" width="12" xmlns="http://www.w3.org/2000/svg"><path d="m5.93867 2.77477c2.77761 0 5.02923 2.25167 5.02923 5.02928v3.67345c0 .1338-.0531.2621-.1477.3567s-.223.1478-.3568.1478h-9.04951c-.1338 0-.26212-.0532-.35673-.1478-.094617-.0946-.14777-.2229-.14777-.3567v-3.67345c0-2.77761 2.25167-5.02928 5.02928-5.02928zm-.44144-2.77477h.88288c.03345 0 .06553.0132883.08918.0369415.02366.0236532.03695.0557339.03695.0891845v1.513514c0 .03345-.01329.06553-.03695.08918-.02365.02366-.05573.03695-.08918.03695h-.88288c-.03345 0-.06553-.01329-.08919-.03695-.02365-.02365-.03694-.05573-.03694-.08918v-1.513514c0-.0334506.01329-.0655313.03694-.0891845.02366-.0236532.05574-.0369415.08919-.0369415zm-4.836151 1.94959c.011714-.01172.025624-.02103.040935-.02737.015312-.00635.031724-.00962.048299-.00962s.032987.00327.048299.00962c.015311.00634.029222.01565.040935.02737l1.070183 1.07018c.02363.02366.03691.05572.03691.08916s-.01328.0655-.03691.08916l-.62433.62432c-.02365.02364-.05572.03691-.08915.03691-.03344 0-.06551-.01327-.08916-.03691l-1.0701777-1.07018c-.0236354-.02365-.0369123-.05572-.0369123-.08916 0-.03343.0132769-.0655.0369123-.08915l.6243237-.62433zm10.556721 0 .6244.62433c.0235.02364.0368.05568.0368.08908 0 .03339-.0133.06543-.0368.08907l-1.0702 1.0705c-.0117.01172-.0256.02103-.041.02737-.0153.00635-.0317.00962-.0483.00962-.0165 0-.0329-.00327-.0483-.00962-.0153-.00634-.0292-.01565-.0409-.02737l-.62431-.62433c-.01173-.01171-.02103-.02562-.02738-.04093s-.00961-.03173-.00961-.0483c0-.01658.00326-.03299.00961-.0483s.01565-.02922.02738-.04094l1.07031-1.07018c.0237-.02363.0557-.03691.0892-.03691.0334 0 .0655.01328.0891.03691zm-10.324176 11.04141h10.090076c.1338 0 .2621.0531.3568.1478.0946.0946.1477.2229.1477.3567v.3784c0 .0334-.0133.0655-.0369.0892-.0237.0236-.0558.0369-.0892.0369h-10.846854c-.033451 0-.065532-.0133-.089185-.0369-.023653-.0237-.036942-.0558-.036942-.0892v-.3784c0-.1338.053154-.2621.147766-.3567.094613-.0947.222936-.1478.356739-.1478zm2.333336-4.99776v3.98876h1.00901v-3.98876z" fill="#ff7557"/></svg>