<svg xmlns="http://www.w3.org/2000/svg" xmlns:xlink="http://www.w3.org/1999/xlink" width="233" height="146" fill="none" viewBox="0 0 233 146"><filter id="a" width="359.605" height="218.32" x="-40.763" y="16.134" color-interpolation-filters="sRGB" filterUnits="userSpaceOnUse"><feFlood flood-opacity="0" result="BackgroundImageFix"/><feBlend in="SourceGraphic" in2="BackgroundImageFix" mode="normal" result="shape"/><feGaussianBlur result="effect1_foregroundBlur_1_3" stdDeviation="13.83"/></filter><filter id="b" width="276.932" height="366.133" x="-115.127" y="-123.96" color-interpolation-filters="sRGB" filterUnits="userSpaceOnUse"><feFlood flood-opacity="0" result="BackgroundImageFix"/><feBlend in="SourceGraphic" in2="BackgroundImageFix" mode="normal" result="shape"/><feGaussianBlur result="effect1_foregroundBlur_1_3" stdDeviation="36.82"/></filter><clipPath id="c"><path d="m0 0h233v146h-233z"/></clipPath><g clip-path="url(#c)"><path fill="#ffa663" fill-opacity=".2" d="m0 0h233v146h-233z"/><g filter="url(#a)" opacity=".3"><path fill="#ff7557" d="m101.443 77.5763c-16.5537 15.9799-73.3862 33.7357-99.73328 40.6167-16.40182 4.587-16.73392 28.79-12.58512 70.756 4.14877 41.966 73.8279-1.091 107.8008-17.421 33.9726-16.33 127.8166-2.714 168.2956-5.884 40.478-3.169 21.862-51.202 20.596-67.9676-1.266-16.7659-26.413-31.0686-44.625-48.206-18.213-17.1375-119.057 8.1311-139.749 28.1059z"/></g><g filter="url(#b)" opacity=".4"><path fill="#e37bd3" d="m-40.5659-29.3306c5.391-37.3183 47.58004-16.5003 68.0007-1.4265 13.0251 18.2896 42.7784 59.5952 57.5906 78.5 18.5156 23.631-49.8184 122.2331-75.30094 120.7741-25.48256-1.459-55.08906-77.6231-39.56666-107.6304 15.5223-30.0072-17.4626-43.5694-10.7237-90.2172z"/></g></g></svg>