<svg fill="none" height="14" viewBox="0 0 11 14" width="11" xmlns="http://www.w3.org/2000/svg"><path d="m9.85648 6.37796c-.17889-.23334-.39668-.43557-.59891-.6378-.52112-.46668-1.11225-.80113-1.61004-1.29114-1.15892-1.13559-1.4156-3.01009-.67669-4.44902-.73891.178894-1.38448.58335-1.93672 1.0267-2.0145 1.61782-2.80786 4.47235-1.85894 6.92242.03111.07778.06222.15556.06222.25667 0 .17112-.11667.32668-.27223.3889-.17889.07778-.36556.03111-.51334-.09334-.04441-.03671-.08138-.0816-.1089-.13222-.87891-1.11226-1.01892-2.70675-.42779-3.98234-1.298923 1.05781-2.0067207 2.84675-1.90560671 4.53458.04666801.3889.09333571.7778.22556171 1.16673.108892.4666.318898.9333.552238 1.3456.840027 1.3456 2.294507 2.31 3.857887 2.5045 1.66449.21 3.44566-.0934 4.72125-1.2445 1.42333-1.2912 1.92113-3.3601 1.19003-5.13348l-.1011-.20223c-.1634-.35779-.59892-.98003-.59892-.98003zm-2.45785 4.90014c-.21778.1867-.57557.3889-.85558.4667-.87113.3111-1.74227-.1245-2.25562-.6378.92559-.2178 1.47782-.9023 1.64116-1.59451.13223-.62224-.11667-1.13558-.21778-1.73449-.09334-.57557-.07778-1.06559.13222-1.60227.14778.29557.30335.59113.49002.82447.5989.7778 1.54004 1.12003 1.74227 2.17784.03111.10889.04667.21778.04667.33445.02333.63781-.25668 1.33781-.72336 1.76561z" fill="#57b7ab"/></svg>