<svg fill="none" height="14" viewBox="0 0 17 14" width="17" xmlns="http://www.w3.org/2000/svg"><path clip-rule="evenodd" d="m15.3383 13.1507c.7912 0 1.269-.8752.8412-1.5407l-7.16835-11.150758c-.39364-.612323-1.28872-.612323-1.68236.000001l-7.168333 11.150757c-.427829.6655.050013 1.5407.841183 1.5407zm-7.14236-9.99991c-.46724 0-.846.37877-.846.846v4.2c0 .46723.37876.846.846.846.46723 0 .846-.37877.846-.846v-4.2c0-.46723-.37877-.846-.846-.846zm-.714 8.44801c.19999.2.43999.3.72.3.28 0 .52399-.1.73199-.3.2-.2.3-.44.3-.72s-.09999-.524-.3-.732c-.20799-.20001-.45199-.30001-.73199-.30001-.28001 0-.52001.1-.72.30001-.20801.208-.31201.452-.31201.732s.104.52.31201.72z" fill="#ffa663" fill-rule="evenodd"/></svg>